<svg xmlns="http://www.w3.org/2000/svg" xmlns:xlink="http://www.w3.org/1999/xlink" width="500" zoomAndPan="magnify" viewBox="0 0 375 374.999991" height="500" preserveAspectRatio="xMidYMid meet" version="1.0"><defs><clipPath id="a9543f9aab"><path d="M 0 81.015625 L 375 81.015625 L 375 294 L 0 294 Z M 0 81.015625 " clip-rule="nonzero"/></clipPath></defs><path fill="#3fa9f5" d="M 264.074219 228.324219 C 246.148438 207.09375 219.074219 176.789062 190.125 157.359375 C 186.824219 158.785156 183.375 159.761719 180 160.285156 L 179.550781 160.359375 C 176.25 166.886719 171.226562 174.613281 164.101562 179.5625 C 159.375 182.941406 153.75 184.664062 147.449219 184.664062 C 141 184.664062 135.074219 182.789062 131.324219 181.214844 C 128.625 180.089844 126.523438 177.914062 125.476562 175.214844 C 124.425781 172.511719 124.5 169.4375 125.773438 166.8125 L 141.601562 133.28125 C 143.101562 130.054688 145.574219 127.429688 148.726562 125.707031 L 172.273438 112.578125 L 158.699219 106.351562 C 156.226562 105.226562 153.300781 105.152344 150.75 106.203125 C 135.824219 112.277344 115.574219 115.503906 106.726562 116.703125 C 105.976562 117.828125 105.074219 118.730469 103.949219 119.554688 C 92.25 127.804688 70.875 150.007812 58.949219 206.417969 L 67.050781 211.371094 L 69.226562 212.71875 C 70.050781 211.820312 70.800781 210.769531 71.699219 209.570312 L 71.851562 209.34375 C 73.648438 207.019531 77.476562 202.96875 82.574219 202.292969 L 84 202.066406 L 84.75 201.992188 C 85.050781 201.992188 85.5 201.917969 86.023438 201.917969 C 86.398438 201.917969 86.773438 201.917969 87.148438 201.992188 C 88.425781 202.066406 89.625 202.367188 90.75 202.667969 C 92.101562 203.117188 93.226562 203.644531 94.351562 204.320312 L 97.726562 206.417969 C 100.351562 207.992188 102.449219 210.246094 103.875 212.945312 C 105.148438 211.519531 106.425781 210.09375 107.699219 208.519531 C 109.351562 206.34375 114.148438 201.992188 119.851562 201.917969 L 121.949219 201.917969 C 122.773438 201.917969 123.601562 202.066406 124.425781 202.21875 C 125.699219 202.441406 126.824219 202.816406 127.949219 203.34375 C 129.148438 203.867188 130.125 204.46875 131.101562 205.21875 L 134.476562 207.542969 L 134.625 207.695312 C 137.925781 210.246094 140.175781 213.84375 140.925781 217.746094 C 141.976562 217.445312 143.023438 217.296875 144.074219 217.296875 L 144.523438 217.296875 L 146.023438 217.371094 L 146.699219 217.445312 C 147.523438 217.519531 148.351562 217.671875 149.101562 217.820312 C 150.300781 218.121094 151.425781 218.570312 152.476562 219.097656 C 153.601562 219.695312 154.574219 220.296875 155.550781 221.046875 L 159.148438 223.671875 L 159.375 223.820312 C 163.199219 226.972656 165.449219 231.621094 165.375 236.347656 L 165.375 238.300781 L 166.800781 238.449219 C 167.625 238.597656 168.375 238.75 169.199219 238.972656 C 170.398438 239.347656 171.449219 239.875 172.5 240.472656 C 173.699219 241.148438 174.675781 241.976562 175.648438 242.800781 L 178.949219 246.175781 C 182.476562 249.550781 184.351562 254.351562 183.898438 259.003906 L 183.601562 262.078125 C 183.375 264.476562 182.550781 266.652344 181.273438 268.605469 C 180.824219 269.277344 180.375 269.878906 179.773438 270.40625 C 177.824219 272.355469 176.324219 273.855469 174.976562 275.128906 C 174.148438 275.957031 173.324219 276.78125 172.574219 277.457031 L 174.601562 278.730469 L 184.875 283.007812 C 184.875 283.007812 189.601562 284.582031 193.5 285.632812 C 196.351562 286.382812 199.425781 285.78125 201.824219 284.058594 L 204.074219 281.28125 C 205.125 279.480469 206.101562 276.554688 204.148438 275.207031 C 193.949219 268.453125 188.925781 263.804688 184.574219 259.378906 C 184.574219 259.378906 184.949219 254.425781 189.148438 257.878906 C 193.351562 261.253906 189.976562 261.402344 200.101562 267.402344 C 204.898438 270.03125 209.773438 272.578125 214.351562 274.753906 C 217.125 276.105469 220.425781 275.804688 222.898438 273.929688 L 226.949219 269.804688 C 228.75 267.105469 228.523438 263.277344 226.273438 261.554688 C 215.25 253.375 213.824219 252.175781 206.023438 244.523438 C 206.023438 244.523438 206.773438 238.824219 211.875 242.949219 C 216.824219 246.925781 212.851562 247.300781 224.625 254.351562 C 228.148438 256.226562 231.675781 257.878906 236.101562 259.675781 C 238.574219 260.652344 241.273438 260.429688 243.375 258.851562 L 247.949219 253.828125 C 249.675781 251.125 247.648438 246.550781 246.226562 245.050781 C 245.699219 244.523438 245.550781 244.226562 244.125 243.023438 C 233.175781 233.949219 221.324219 223.148438 214.800781 215.496094 C 214.800781 215.496094 216 209.792969 221.324219 214.820312 C 226.125 219.472656 222.523438 219.546875 232.125 226.820312 C 237.75 230.871094 243.601562 234.847656 249.449219 238.597656 C 252.300781 240.398438 255.898438 240.398438 258.675781 238.449219 L 264.375 232.972656 C 265.125 232.449219 265.425781 231.324219 265.5 230.046875 Z M 264.074219 228.324219 " fill-opacity="1" fill-rule="nonzero"/><path fill="#000000" d="M 31.800781 179.039062 C 27.074219 179.039062 23.175781 182.863281 23.175781 187.589844 C 23.175781 192.316406 27 196.21875 31.800781 196.21875 C 36.523438 196.21875 40.425781 192.390625 40.425781 187.589844 C 40.351562 182.941406 36.523438 179.039062 31.800781 179.039062 Z M 31.800781 179.039062 " fill-opacity="1" fill-rule="nonzero"/><path fill="#ffffff" d="M 50.925781 205.820312 C 63.300781 146.183594 86.324219 122.105469 99.375 112.953125 C 101.101562 111.753906 100.875 109.203125 99 108.300781 L 59.25 89.847656 C 56.25 88.5 52.726562 89.25 50.550781 91.800781 C 22.050781 125.480469 8.101562 157.359375 8.101562 189.316406 C 8.101562 191.792969 9.300781 194.042969 11.25 195.390625 L 41.550781 216.246094 C 43.5 217.59375 46.050781 217.59375 48.074219 216.246094 C 49.648438 215.195312 50.550781 213.394531 50.625 211.519531 L 50.851562 206.269531 Z M 31.800781 196.21875 C 27.074219 196.21875 23.175781 192.390625 23.175781 187.589844 C 23.175781 182.863281 27 179.039062 31.800781 179.039062 C 36.523438 179.039062 40.425781 182.863281 40.425781 187.589844 C 40.351562 192.390625 36.523438 196.21875 31.800781 196.21875 Z M 31.800781 196.21875 " fill-opacity="1" fill-rule="nonzero"/><path fill="#ffffff" d="M 271.050781 119.554688 C 270.449219 119.179688 269.925781 118.652344 269.476562 118.203125 C 247.875 122.554688 211.5 114.980469 196.199219 111.304688 C 193.949219 110.777344 191.625 111.078125 189.523438 112.203125 L 152.625 132.757812 C 150.976562 133.65625 149.699219 135.082031 148.875 136.730469 L 133.050781 170.261719 C 132.75 170.9375 132.75 171.613281 132.976562 172.289062 C 133.199219 172.964844 133.726562 173.488281 134.398438 173.714844 C 140.101562 176.039062 150.898438 179.039062 159.449219 172.886719 C 166.199219 168.085938 170.925781 159.910156 173.625 153.835938 L 173.925781 153.160156 C 176.101562 148.660156 177.898438 143.785156 179.324219 138.832031 C 179.476562 143.257812 179.25 147.683594 178.726562 152.183594 C 181.199219 151.808594 185.101562 150.910156 189.449219 148.585938 L 190.199219 148.210938 C 195.601562 145.285156 200.550781 141.757812 204.898438 137.332031 C 202.125 142.132812 198.449219 146.558594 194.476562 150.460938 C 224.175781 170.335938 251.773438 201.167969 270.148438 222.921875 C 270.601562 223.445312 270.976562 223.898438 271.425781 224.421875 L 271.800781 224.421875 C 292.800781 218.722656 307.726562 208.292969 315.074219 202.144531 C 303.074219 148.960938 282.449219 127.582031 271.050781 119.554688 Z M 271.050781 119.554688 " fill-opacity="1" fill-rule="nonzero"/><path fill="#000000" d="M 343.199219 179.039062 C 338.476562 179.039062 334.574219 182.863281 334.574219 187.589844 C 334.574219 192.316406 338.398438 196.21875 343.199219 196.21875 C 347.925781 196.21875 351.824219 192.390625 351.824219 187.589844 C 351.824219 182.941406 347.925781 179.039062 343.199219 179.039062 Z M 343.199219 179.039062 " fill-opacity="1" fill-rule="nonzero"/><g clip-path="url(#a9543f9aab)"><path fill="#000000" d="M 330.601562 86.550781 C 327.675781 83.097656 323.398438 81.148438 318.824219 81.148438 C 316.574219 81.148438 314.398438 81.597656 312.375 82.574219 L 272.625 101.027344 C 269.175781 102.601562 266.773438 105.976562 266.476562 109.804688 C 266.476562 110.027344 266.476562 110.328125 266.398438 110.554688 C 262.875 111.152344 258.75 111.453125 254.023438 111.453125 C 233.625 111.453125 208.050781 105.828125 198 103.425781 C 196.648438 103.125 195.300781 102.976562 194.023438 102.976562 C 191.101562 102.976562 188.175781 103.726562 185.625 105.152344 L 180.976562 107.703125 L 162.074219 99 C 159.75 97.949219 157.125 97.351562 154.574219 97.351562 C 152.25 97.351562 149.925781 97.800781 147.75 98.699219 C 134.925781 103.875 117.75 106.953125 108.300781 108.300781 C 107.550781 105.078125 105.375 102.375 102.375 100.953125 L 62.625 82.5 C 60.601562 81.523438 58.425781 81.074219 56.175781 81.074219 C 51.675781 81.074219 47.398438 83.023438 44.398438 86.550781 C 14.550781 121.730469 0 155.335938 0 189.242188 C 0 194.339844 2.476562 199.140625 6.675781 201.992188 L 36.976562 222.847656 C 39.300781 224.421875 42 225.320312 44.773438 225.320312 C 47.476562 225.320312 50.175781 224.496094 52.5 222.996094 C 55.199219 221.195312 57.148438 218.421875 58.050781 215.269531 L 62.773438 218.195312 L 63.976562 218.945312 C 62.851562 220.445312 61.648438 222.171875 60.375 224.347656 C 57.824219 229.074219 58.726562 239.125 64.574219 242.875 L 71.550781 247.449219 C 72.226562 247.902344 72.898438 248.277344 73.648438 248.652344 C 74.25 251.5 75.601562 254.203125 77.851562 256 L 85.5 262.378906 C 88.726562 264.929688 92.625 266.277344 96.824219 266.277344 C 97.125 266.277344 97.351562 266.277344 97.648438 266.277344 C 98.25 267.402344 99 268.378906 99.976562 269.203125 L 107.324219 275.878906 C 110.625 278.804688 114.824219 280.304688 119.476562 280.304688 C 121.050781 280.304688 122.550781 280.15625 123.898438 279.855469 C 123.976562 279.929688 131.023438 287.207031 131.023438 287.207031 C 134.476562 290.65625 139.125 292.53125 144.449219 292.53125 C 150.898438 292.53125 156.523438 289.757812 157.125 289.457031 L 157.5 289.308594 L 157.800781 289.082031 C 161.550781 286.683594 164.175781 284.804688 166.425781 283.007812 L 170.925781 285.855469 L 182.023438 290.507812 L 182.25 290.582031 C 182.476562 290.65625 187.273438 292.308594 191.398438 293.359375 C 192.898438 293.734375 194.476562 293.957031 196.050781 293.957031 C 199.800781 293.957031 203.550781 292.757812 206.625 290.507812 L 207.675781 289.757812 L 211.425781 284.355469 L 211.574219 284.132812 C 211.875 283.679688 212.101562 283.15625 212.324219 282.632812 C 214.125 283.304688 216 283.605469 217.949219 283.605469 C 221.476562 283.605469 224.851562 282.480469 227.699219 280.382812 L 228.300781 279.929688 L 234.300781 273.628906 L 234.675781 273.105469 C 235.726562 271.53125 236.476562 269.878906 236.851562 268.078125 C 237.601562 268.152344 238.273438 268.230469 239.023438 268.230469 C 242.324219 268.230469 245.550781 267.179688 248.175781 265.226562 L 248.773438 264.777344 L 255.226562 257.800781 L 255.601562 257.203125 C 257.476562 254.277344 257.851562 250.824219 257.324219 247.675781 C 259.425781 247.226562 261.449219 246.398438 263.25 245.199219 L 263.773438 244.824219 L 269.699219 239.199219 C 271.800781 237.398438 272.925781 235 273.375 232.523438 L 273.824219 232.371094 C 293.023438 227.121094 307.574219 218.121094 316.199219 211.59375 L 316.199219 211.820312 C 316.425781 216.320312 318.675781 220.519531 322.351562 222.921875 C 324.675781 224.421875 327.300781 225.246094 330.074219 225.246094 C 332.851562 225.246094 335.550781 224.421875 337.875 222.769531 L 368.175781 201.917969 C 372.375 199.066406 374.851562 194.265625 374.851562 189.164062 C 375 155.335938 360.449219 121.730469 330.601562 86.550781 Z M 50.625 211.519531 C 50.550781 213.394531 49.648438 215.195312 48.074219 216.246094 C 46.050781 217.59375 43.5 217.59375 41.550781 216.246094 L 11.25 195.390625 C 9.226562 194.042969 8.101562 191.714844 8.101562 189.316406 C 8.101562 157.359375 22.050781 125.480469 50.550781 91.800781 C 52.648438 89.324219 56.25 88.5 59.25 89.847656 L 99 108.300781 C 100.875 109.203125 101.101562 111.753906 99.375 112.953125 C 86.324219 122.105469 63.300781 146.183594 50.925781 205.820312 L 50.851562 206.269531 Z M 153.523438 282.257812 C 153.523438 282.257812 142.949219 287.65625 136.800781 281.507812 L 129.898438 274.378906 C 128.925781 273.40625 128.699219 271.230469 128.925781 269.503906 C 127.199219 270.480469 118.574219 274.980469 112.648438 269.804688 L 105.300781 263.128906 C 103.726562 261.851562 103.648438 257.652344 104.550781 256.152344 C 101.25 257.800781 95.25 259.828125 90.523438 256 L 82.875 249.625 C 81.148438 248.351562 80.925781 243.851562 81.824219 242.425781 C 80.101562 242.425781 78.074219 241.972656 75.824219 240.550781 L 68.851562 235.972656 C 66.976562 234.847656 66.601562 229.449219 67.351562 228.023438 C 70.949219 221.871094 73.875 220.144531 78.148438 214.21875 C 79.425781 212.644531 81.601562 210.46875 83.625 210.167969 L 85.050781 210.019531 C 85.125 210.019531 85.273438 210.019531 85.351562 210.019531 C 85.726562 210.019531 86.175781 210.019531 86.550781 210.019531 C 87.148438 210.09375 87.75 210.167969 88.425781 210.394531 C 89.023438 210.621094 89.625 210.84375 90.148438 211.21875 L 93.449219 213.246094 C 95.625 214.519531 97.125 216.695312 97.5 218.945312 L 98.023438 222.097656 C 98.175781 223.148438 98.175781 224.195312 97.875 225.097656 C 97.800781 225.398438 97.648438 225.695312 97.5 225.996094 C 95.773438 228.996094 94.726562 231.023438 93.824219 232.597656 C 100.726562 227.121094 107.773438 221.347656 114 213.46875 C 115.125 211.96875 117.898438 209.945312 119.925781 209.945312 L 121.351562 209.945312 C 121.425781 209.945312 121.574219 209.945312 121.648438 209.945312 C 122.023438 209.945312 122.476562 210.019531 122.851562 210.09375 C 123.449219 210.246094 124.050781 210.394531 124.648438 210.695312 C 125.25 210.917969 125.773438 211.292969 126.300781 211.667969 L 129.675781 213.996094 C 131.699219 215.496094 132.898438 217.820312 132.976562 220.070312 L 133.050781 223.148438 C 133.050781 224.195312 132.898438 225.171875 132.449219 226.070312 C 132.300781 226.371094 132.148438 226.671875 131.925781 226.898438 C 124.800781 236.199219 117.675781 244.449219 110.625 251.125 C 119.773438 244.449219 129.300781 238.148438 137.851562 228.472656 C 139.050781 227.046875 141.898438 225.171875 144 225.246094 L 145.5 225.320312 C 145.574219 225.320312 145.726562 225.320312 145.800781 225.320312 C 146.175781 225.320312 146.625 225.398438 147 225.546875 C 147.601562 225.695312 148.199219 225.921875 148.800781 226.222656 C 149.398438 226.523438 149.925781 226.898438 150.449219 227.273438 L 154.050781 229.824219 C 156 231.398438 157.125 233.722656 157.125 235.972656 L 157.050781 239.050781 C 157.050781 240.097656 156.75 241.074219 156.300781 241.898438 C 156.148438 242.199219 155.925781 242.5 155.773438 242.726562 C 149.101562 250.527344 142.5 257.503906 135.898438 263.429688 C 143.851562 258.777344 149.851562 254.800781 157.050781 248.652344 C 158.398438 247.375 161.398438 245.726562 163.5 245.949219 L 165 246.101562 C 165.074219 246.101562 165.226562 246.101562 165.300781 246.175781 C 165.675781 246.25 166.125 246.324219 166.5 246.476562 C 167.101562 246.699219 167.699219 246.925781 168.300781 247.300781 C 168.824219 247.601562 169.351562 247.976562 169.875 248.5 L 173.023438 251.726562 C 174.824219 253.453125 175.800781 255.777344 175.574219 258.027344 L 175.273438 261.027344 C 175.199219 262.078125 174.824219 262.976562 174.300781 263.804688 C 174.148438 264.101562 173.925781 264.328125 173.699219 264.554688 C 164.101562 274.378906 162.976562 276.253906 153.523438 282.257812 Z M 264.523438 233.125 L 258.75 238.523438 C 255.976562 240.398438 252.300781 240.472656 249.523438 238.675781 C 243.675781 234.921875 237.824219 230.949219 232.199219 226.898438 C 222.601562 219.621094 226.199219 219.472656 221.398438 214.894531 C 216.148438 209.792969 214.875 215.570312 214.875 215.570312 C 221.398438 223.222656 233.25 234.023438 244.199219 243.101562 C 245.625 244.300781 245.773438 244.601562 246.300781 245.125 C 247.726562 246.625 249.75 251.199219 248.023438 253.902344 L 243.449219 258.925781 C 241.351562 260.503906 238.574219 260.726562 236.175781 259.753906 C 231.75 258.027344 228.226562 256.378906 224.699219 254.425781 C 213 247.375 216.898438 247.074219 211.949219 243.023438 C 206.925781 238.898438 206.101562 244.601562 206.101562 244.601562 C 213.898438 252.175781 215.324219 253.453125 226.351562 261.628906 C 228.601562 263.277344 228.898438 267.179688 227.023438 269.878906 L 222.976562 274.003906 C 220.5 275.804688 217.199219 276.179688 214.425781 274.828125 C 209.773438 272.578125 204.898438 270.105469 200.175781 267.480469 C 190.050781 261.476562 193.425781 261.328125 189.226562 257.953125 C 185.023438 254.5 184.648438 259.453125 184.648438 259.453125 C 189 263.878906 194.023438 268.527344 204.226562 275.28125 C 206.25 276.628906 205.273438 279.480469 204.148438 281.355469 L 201.898438 284.132812 C 199.5 285.855469 196.425781 286.457031 193.574219 285.707031 C 189.675781 284.65625 184.949219 283.082031 184.949219 283.082031 L 174.675781 278.804688 L 172.648438 277.53125 C 173.398438 276.78125 174.148438 276.03125 175.050781 275.207031 C 176.324219 273.929688 177.824219 272.429688 179.851562 270.480469 C 180.375 269.953125 180.898438 269.277344 181.351562 268.679688 C 182.625 266.730469 183.449219 264.554688 183.675781 262.152344 L 183.976562 259.078125 C 184.425781 254.425781 182.550781 249.699219 179.023438 246.25 L 175.726562 242.875 C 174.824219 241.976562 173.773438 241.222656 172.574219 240.550781 C 171.523438 239.949219 170.476562 239.5 169.273438 239.050781 C 168.449219 238.824219 167.699219 238.597656 166.875 238.523438 L 165.449219 238.375 L 165.449219 236.421875 C 165.523438 231.699219 163.273438 227.046875 159.449219 223.898438 L 159.226562 223.746094 L 155.625 221.121094 C 154.726562 220.371094 153.75 219.769531 152.550781 219.171875 C 151.5 218.644531 150.375 218.269531 149.175781 217.894531 C 148.351562 217.671875 147.601562 217.59375 146.773438 217.519531 L 146.101562 217.445312 L 144.601562 217.371094 L 144.148438 217.371094 C 143.101562 217.371094 142.050781 217.519531 141 217.820312 C 140.25 213.921875 138 210.246094 134.699219 207.769531 L 134.550781 207.617188 L 131.175781 205.292969 C 130.199219 204.542969 129.148438 203.941406 128.023438 203.417969 C 126.898438 202.96875 125.773438 202.59375 124.5 202.292969 C 123.675781 202.144531 122.925781 202.066406 122.023438 201.992188 L 119.925781 201.992188 C 114.148438 201.992188 109.351562 206.417969 107.773438 208.59375 C 106.574219 210.167969 105.300781 211.59375 103.949219 213.019531 C 102.523438 210.320312 100.425781 208.070312 97.800781 206.492188 L 94.425781 204.394531 C 93.300781 203.71875 92.175781 203.191406 90.824219 202.742188 C 89.699219 202.367188 88.5 202.144531 87.226562 202.066406 C 86.851562 202.066406 86.476562 201.992188 86.101562 201.992188 C 85.648438 201.992188 85.199219 201.992188 84.824219 202.066406 L 84.074219 202.144531 L 82.648438 202.367188 C 77.550781 203.042969 73.726562 207.09375 71.925781 209.417969 L 71.773438 209.644531 C 70.875 210.84375 70.125 211.894531 69.300781 212.792969 L 67.125 211.445312 L 59.023438 206.492188 C 70.949219 150.085938 92.25 127.878906 104.023438 119.628906 C 105.148438 118.878906 106.050781 117.902344 106.800781 116.777344 C 115.648438 115.578125 135.824219 112.277344 150.824219 106.277344 C 153.449219 105.226562 156.300781 105.300781 158.773438 106.425781 L 172.351562 112.652344 L 148.800781 125.78125 C 145.648438 127.503906 143.175781 130.132812 141.675781 133.355469 L 125.851562 166.886719 C 124.648438 169.511719 124.5 172.589844 125.550781 175.289062 C 126.601562 177.988281 128.699219 180.164062 131.398438 181.289062 C 135.226562 182.863281 141.074219 184.738281 147.523438 184.738281 C 153.824219 184.738281 159.449219 183.015625 164.175781 179.640625 C 171.226562 174.613281 176.324219 166.886719 179.625 160.4375 L 180.074219 160.359375 C 183.449219 159.835938 186.898438 158.859375 190.199219 157.4375 C 219.148438 176.863281 246.226562 207.167969 264.148438 228.398438 L 265.726562 230.273438 C 265.574219 231.472656 265.199219 232.597656 264.523438 233.125 Z M 271.800781 224.570312 L 271.425781 224.570312 C 270.976562 224.046875 270.601562 223.597656 270.148438 223.070312 C 251.773438 201.316406 224.175781 170.488281 194.476562 150.609375 C 198.449219 146.707031 202.125 142.28125 204.898438 137.480469 C 200.550781 141.90625 195.601562 145.433594 190.199219 148.359375 L 189.449219 148.734375 C 185.101562 151.058594 181.199219 151.960938 178.726562 152.335938 C 179.25 147.835938 179.476562 143.410156 179.324219 138.984375 C 177.898438 143.933594 176.101562 148.808594 173.925781 153.308594 L 173.625 153.984375 C 170.851562 160.0625 166.125 168.238281 159.449219 173.039062 C 150.824219 179.1875 140.023438 176.1875 134.398438 173.863281 C 133.726562 173.5625 133.273438 173.113281 132.976562 172.4375 C 132.75 171.761719 132.75 171.011719 133.050781 170.414062 L 148.875 136.882812 C 149.699219 135.15625 150.976562 133.808594 152.625 132.90625 L 189.523438 112.277344 C 191.550781 111.152344 193.875 110.777344 196.199219 111.378906 C 211.5 115.054688 247.875 122.628906 269.476562 118.277344 C 269.925781 118.804688 270.449219 119.253906 271.050781 119.628906 C 282.449219 127.65625 303.074219 149.035156 315.148438 202.441406 C 307.726562 208.445312 292.800781 218.871094 271.800781 224.570312 Z M 366.976562 189.242188 C 366.976562 191.714844 365.773438 193.964844 363.824219 195.316406 L 333.523438 216.171875 C 331.574219 217.519531 329.023438 217.519531 327 216.171875 C 325.425781 215.121094 324.523438 213.320312 324.449219 211.445312 L 324.226562 206.195312 L 324.148438 205.742188 C 311.773438 146.109375 288.75 122.03125 275.699219 112.878906 C 273.976562 111.679688 274.199219 109.128906 276.074219 108.226562 L 315.824219 89.773438 C 318.824219 88.425781 322.351562 89.175781 324.523438 91.726562 C 353.023438 125.40625 366.898438 157.285156 366.976562 189.242188 Z M 366.976562 189.242188 " fill-opacity="1" fill-rule="nonzero"/></g><path fill="#3fa9f5" d="M 315.824219 89.847656 L 276.074219 108.300781 C 274.199219 109.203125 273.976562 111.753906 275.699219 112.953125 C 288.75 122.105469 311.773438 146.183594 324.148438 205.820312 L 324.226562 206.269531 L 324.449219 211.519531 C 324.523438 213.394531 325.425781 215.195312 327 216.246094 C 329.023438 217.59375 331.574219 217.59375 333.523438 216.246094 L 363.824219 195.390625 C 365.851562 194.042969 366.976562 191.714844 366.976562 189.316406 C 366.976562 157.359375 353.023438 125.480469 324.523438 91.800781 C 322.351562 89.25 318.824219 88.5 315.824219 89.847656 Z M 343.199219 179.039062 C 347.925781 179.039062 351.824219 182.863281 351.824219 187.589844 C 351.824219 192.316406 348 196.21875 343.199219 196.21875 C 338.476562 196.21875 334.574219 192.390625 334.574219 187.589844 C 334.648438 182.941406 338.476562 179.039062 343.199219 179.039062 Z M 343.199219 179.039062 " fill-opacity="1" fill-rule="nonzero"/><path fill="#ffffff" d="M 174.675781 263.878906 C 175.199219 263.054688 175.5 262.152344 175.648438 261.101562 L 175.949219 258.101562 C 176.175781 255.851562 175.199219 253.527344 173.398438 251.800781 L 170.25 248.574219 C 169.800781 248.125 169.273438 247.75 168.675781 247.375 C 168.074219 247.074219 167.476562 246.777344 166.875 246.550781 C 166.5 246.398438 166.050781 246.324219 165.675781 246.25 C 165.601562 246.25 165.449219 246.25 165.375 246.175781 L 163.875 246.023438 C 161.773438 245.800781 158.773438 247.449219 157.425781 248.726562 C 150.226562 254.875 144.226562 258.851562 136.273438 263.503906 C 142.800781 257.652344 149.476562 250.675781 156.148438 242.800781 C 156.375 242.574219 156.523438 242.273438 156.675781 241.972656 C 157.125 241.148438 157.351562 240.175781 157.425781 239.125 L 157.5 236.046875 C 157.5 233.796875 156.375 231.472656 154.425781 229.898438 L 150.824219 227.347656 C 150.300781 226.898438 149.773438 226.597656 149.175781 226.296875 C 148.574219 225.996094 147.976562 225.773438 147.375 225.621094 C 147 225.546875 146.550781 225.472656 146.175781 225.398438 C 146.101562 225.398438 145.949219 225.398438 145.875 225.398438 L 144.375 225.320312 C 142.351562 225.246094 139.425781 227.121094 138.226562 228.546875 C 129.675781 238.222656 120.074219 244.523438 111 251.199219 C 118.050781 244.523438 125.175781 236.273438 132.300781 226.972656 C 132.449219 226.746094 132.675781 226.445312 132.824219 226.148438 C 133.273438 225.246094 133.425781 224.273438 133.425781 223.222656 L 133.351562 220.144531 C 133.273438 217.820312 132 215.570312 130.050781 214.070312 L 126.675781 211.746094 C 126.148438 211.371094 125.625 210.996094 125.023438 210.769531 C 124.425781 210.46875 123.824219 210.320312 123.226562 210.167969 C 122.773438 210.09375 122.398438 210.019531 122.023438 210.019531 C 121.949219 210.019531 121.800781 210.019531 121.726562 210.019531 L 120.300781 210.019531 C 118.273438 210.019531 115.5 212.042969 114.375 213.542969 C 108.148438 221.421875 101.175781 227.121094 94.199219 232.671875 C 95.101562 231.097656 96.148438 229.074219 97.875 226.070312 C 98.023438 225.773438 98.175781 225.472656 98.25 225.171875 C 98.550781 224.273438 98.625 223.222656 98.398438 222.171875 L 97.875 219.019531 C 97.5 216.695312 96 214.59375 93.824219 213.320312 L 90.523438 211.292969 C 89.925781 210.917969 89.398438 210.695312 88.800781 210.46875 C 88.199219 210.246094 87.523438 210.167969 86.925781 210.09375 C 86.476562 210.09375 86.101562 210.09375 85.726562 210.09375 C 85.648438 210.09375 85.5 210.09375 85.425781 210.09375 L 84 210.246094 C 82.050781 210.542969 79.800781 212.71875 78.523438 214.296875 C 74.175781 220.222656 71.25 222.019531 67.726562 228.097656 C 66.976562 229.523438 67.351562 234.921875 69.226562 236.046875 L 76.199219 240.625 C 78.449219 242.050781 80.476562 242.5 82.199219 242.5 C 81.300781 243.851562 81.523438 248.351562 83.25 249.699219 L 90.898438 256.078125 C 95.550781 259.828125 101.625 257.800781 104.925781 256.226562 C 104.023438 257.726562 104.101562 261.929688 105.675781 263.203125 L 113.023438 269.878906 C 118.875 275.054688 127.574219 270.554688 129.300781 269.578125 C 129 271.304688 129.226562 273.480469 130.273438 274.453125 L 137.175781 281.582031 C 143.324219 287.730469 153.898438 282.332031 153.898438 282.332031 C 163.351562 276.332031 164.398438 274.453125 174.375 264.703125 C 174.226562 264.402344 174.449219 264.179688 174.675781 263.878906 Z M 174.675781 263.878906 " fill-opacity="1" fill-rule="nonzero"/></svg>