<svg xmlns="http://www.w3.org/2000/svg" xmlns:xlink="http://www.w3.org/1999/xlink" width="500" zoomAndPan="magnify" viewBox="0 0 375 374.999991" height="500" preserveAspectRatio="xMidYMid meet" version="1.0"><defs><clipPath id="0dfa47c600"><path d="M 187.5 118.238281 L 375 118.238281 L 375 305.492188 L 187.5 305.492188 Z M 187.5 118.238281 " clip-rule="nonzero"/></clipPath><clipPath id="25ff16fab4"><path d="M 0 118.238281 L 187.5 118.238281 L 187.5 305.492188 L 0 305.492188 Z M 0 118.238281 " clip-rule="nonzero"/></clipPath><clipPath id="915a9629c3"><path d="M 183 69.375 L 192 69.375 L 192 91 L 183 91 Z M 183 69.375 " clip-rule="nonzero"/></clipPath></defs><path fill="#29abe2" d="M 246.988281 129.445312 C 246.988281 108.230469 264.183594 91.03125 285.394531 91.03125 C 306.609375 91.03125 323.804688 108.230469 323.804688 129.445312 C 323.804688 150.65625 306.609375 167.855469 285.394531 167.855469 C 264.183594 167.855469 246.988281 150.65625 246.988281 129.445312 " fill-opacity="1" fill-rule="nonzero"/><g clip-path="url(#0dfa47c600)"><path fill="#29abe2" d="M 374.976562 283.695312 C 373.898438 263.179688 370.859375 245.445312 365.90625 230.804688 C 360.097656 213.640625 351.527344 200.238281 340.433594 190.976562 C 325.675781 178.652344 308.152344 176.035156 286.441406 177.5 C 277.742188 178.089844 269.441406 178.875 261.40625 176.96875 C 239.410156 171.75 222.5625 158.308594 211.335938 137.015625 C 207.882812 130.472656 205.472656 124.113281 203.8125 118.753906 C 204.398438 121.398438 204.34375 124.234375 203.503906 127.050781 C 201.390625 134.144531 198.292969 142.59375 193.789062 151.351562 C 191.839844 155.148438 189.738281 158.785156 187.5 162.253906 C 199.304688 180.539062 215.03125 194.230469 233.910156 202.710938 C 235.046875 203.226562 235.785156 204.355469 235.785156 205.605469 L 235.785156 298.332031 C 235.785156 302.285156 238.988281 305.492188 242.945312 305.492188 L 324.027344 305.492188 C 327.980469 305.492188 331.1875 302.285156 331.1875 298.332031 L 331.1875 238.035156 C 331.1875 237.027344 332.582031 236.765625 332.949219 237.707031 C 333.425781 238.929688 333.882812 240.191406 334.324219 241.492188 C 338.3125 253.277344 340.773438 268.003906 341.683594 285.398438 C 342.144531 294.257812 349.429688 301.222656 358.300781 301.222656 L 358.363281 301.222656 C 367.898438 301.222656 375.476562 293.21875 374.976562 283.695312 " fill-opacity="1" fill-rule="nonzero"/></g><g clip-path="url(#25ff16fab4)"><path fill="#ed4249" d="M 171.496094 127.050781 C 170.65625 124.234375 170.601562 121.398438 171.1875 118.753906 C 169.527344 124.113281 167.113281 130.472656 163.664062 137.015625 C 152.4375 158.308594 135.589844 171.75 113.59375 176.96875 C 105.558594 178.875 97.269531 177.808594 88.5625 177.5 C 67.023438 176.742188 49.324219 178.652344 34.566406 190.976562 C 23.472656 200.238281 14.902344 213.640625 9.09375 230.804688 C 4.140625 245.445312 1.101562 263.179688 0.0234375 283.695312 C -0.476562 293.21875 7.101562 301.222656 16.636719 301.222656 L 16.699219 301.222656 C 25.570312 301.222656 32.855469 294.257812 33.316406 285.398438 C 34.226562 268.003906 36.6875 253.277344 40.679688 241.492188 C 41.164062 240.066406 41.667969 238.683594 42.191406 237.347656 C 42.53125 236.484375 43.8125 236.734375 43.8125 237.660156 L 43.8125 298.332031 C 43.8125 302.285156 47.019531 305.492188 50.972656 305.492188 L 132.054688 305.492188 C 136.011719 305.492188 139.214844 302.285156 139.214844 298.332031 L 139.214844 205.511719 C 139.214844 204.316406 139.917969 203.238281 141.003906 202.75 C 159.921875 194.273438 175.679688 180.566406 187.5 162.253906 C 185.261719 158.785156 183.160156 155.148438 181.210938 151.351562 C 176.707031 142.59375 173.605469 134.144531 171.496094 127.050781 " fill-opacity="1" fill-rule="nonzero"/></g><path fill="#333333" d="M 203.503906 127.050781 C 204.34375 124.234375 204.398438 121.398438 203.8125 118.753906 C 203.691406 118.367188 203.574219 117.980469 203.460938 117.601562 C 201.371094 110.601562 195.039062 105.851562 187.90625 105.671875 C 187.898438 105.671875 187.890625 105.671875 187.878906 105.671875 C 187.753906 105.667969 187.625 105.671875 187.5 105.671875 C 187.375 105.671875 187.246094 105.667969 187.117188 105.671875 C 187.109375 105.671875 187.101562 105.671875 187.09375 105.671875 C 179.960938 105.851562 173.628906 110.601562 171.539062 117.601562 C 171.425781 117.980469 171.308594 118.367188 171.1875 118.753906 C 170.601562 121.398438 170.65625 124.234375 171.496094 127.050781 C 173.605469 134.144531 176.707031 142.59375 181.210938 151.351562 C 183.160156 155.148438 185.261719 158.785156 187.5 162.253906 C 189.738281 158.785156 191.839844 155.148438 193.789062 151.351562 C 198.292969 142.59375 201.390625 134.144531 203.503906 127.050781 " fill-opacity="1" fill-rule="nonzero"/><path fill="#ed4249" d="M 128.011719 129.445312 C 128.011719 108.230469 110.816406 91.03125 89.601562 91.03125 C 68.386719 91.03125 51.195312 108.230469 51.195312 129.445312 C 51.195312 150.65625 68.386719 167.855469 89.601562 167.855469 C 110.816406 167.855469 128.011719 150.65625 128.011719 129.445312 " fill-opacity="1" fill-rule="nonzero"/><g clip-path="url(#915a9629c3)"><path fill="#333333" d="M 187.5 90.945312 C 185.453125 90.945312 183.796875 89.285156 183.796875 87.238281 L 183.796875 73.191406 C 183.796875 71.144531 185.453125 69.484375 187.5 69.484375 C 189.542969 69.484375 191.203125 71.144531 191.203125 73.191406 L 191.203125 87.238281 C 191.203125 89.285156 189.542969 90.945312 187.5 90.945312 " fill-opacity="1" fill-rule="nonzero"/></g><path fill="#333333" d="M 166.730469 101.265625 L 154.609375 94.164062 C 152.84375 93.128906 152.253906 90.859375 153.285156 89.097656 C 154.320312 87.328125 156.589844 86.738281 158.355469 87.773438 L 170.476562 94.875 C 172.242188 95.90625 172.832031 98.179688 171.800781 99.941406 C 170.765625 101.707031 168.496094 102.300781 166.730469 101.265625 " fill-opacity="1" fill-rule="nonzero"/><path fill="#333333" d="M 204.015625 99.941406 C 202.980469 98.179688 203.570312 95.90625 205.339844 94.875 L 217.457031 87.773438 C 219.226562 86.738281 221.492188 87.328125 222.527344 89.097656 C 223.5625 90.859375 222.96875 93.128906 221.207031 94.164062 L 209.082031 101.265625 C 207.320312 102.300781 205.046875 101.707031 204.015625 99.941406 " fill-opacity="1" fill-rule="nonzero"/></svg>