<svg xmlns="http://www.w3.org/2000/svg" xmlns:xlink="http://www.w3.org/1999/xlink" width="500" zoomAndPan="magnify" viewBox="0 0 375 374.999991" height="500" preserveAspectRatio="xMidYMid meet" version="1.0"><defs><clipPath id="90eebf5053"><path d="M 174 339 L 253 339 L 253 374.8125 L 174 374.8125 Z M 174 339 " clip-rule="nonzero"/></clipPath></defs><path fill="#7ccedc" d="M 359.792969 190.441406 C 359.792969 193.285156 359.722656 196.125 359.585938 198.964844 C 359.445312 201.804688 359.234375 204.636719 358.957031 207.464844 C 358.679688 210.296875 358.328125 213.117188 357.914062 215.929688 C 357.496094 218.738281 357.007812 221.539062 356.453125 224.328125 C 355.898438 227.117188 355.277344 229.890625 354.585938 232.644531 C 353.894531 235.402344 353.136719 238.144531 352.308594 240.863281 C 351.484375 243.582031 350.59375 246.28125 349.632812 248.957031 C 348.675781 251.636719 347.652344 254.285156 346.566406 256.914062 C 345.476562 259.539062 344.324219 262.136719 343.109375 264.707031 C 341.890625 267.277344 340.613281 269.816406 339.273438 272.324219 C 337.933594 274.828125 336.53125 277.300781 335.070312 279.742188 C 333.605469 282.179688 332.085938 284.578125 330.503906 286.941406 C 328.925781 289.308594 327.289062 291.628906 325.59375 293.914062 C 323.898438 296.195312 322.148438 298.4375 320.347656 300.632812 C 318.542969 302.832031 316.683594 304.984375 314.773438 307.089844 C 312.863281 309.195312 310.902344 311.253906 308.890625 313.265625 C 306.882812 315.273438 304.820312 317.234375 302.714844 319.144531 C 300.605469 321.054688 298.453125 322.910156 296.257812 324.710938 C 294.058594 326.515625 291.816406 328.265625 289.53125 329.957031 C 287.246094 331.652344 284.921875 333.289062 282.558594 334.867188 C 280.191406 336.445312 277.789062 337.964844 275.351562 339.429688 C 272.910156 340.890625 270.4375 342.289062 267.929688 343.628906 C 265.421875 344.96875 262.882812 346.246094 260.308594 347.464844 C 257.738281 348.679688 255.140625 349.832031 252.511719 350.917969 C 249.882812 352.007812 247.230469 353.027344 244.554688 353.988281 C 241.875 354.945312 239.175781 355.835938 236.453125 356.660156 C 233.734375 357.484375 230.992188 358.246094 228.234375 358.933594 C 225.472656 359.625 222.699219 360.25 219.910156 360.804688 C 217.121094 361.359375 214.320312 361.84375 211.507812 362.261719 C 208.691406 362.675781 205.871094 363.023438 203.039062 363.304688 C 200.210938 363.582031 197.375 363.792969 194.535156 363.929688 C 191.691406 364.070312 188.851562 364.140625 186.007812 364.140625 C 183.164062 364.140625 180.320312 364.070312 177.480469 363.929688 C 174.636719 363.792969 171.804688 363.582031 168.972656 363.304688 C 166.140625 363.023438 163.320312 362.675781 160.507812 362.261719 C 157.691406 361.84375 154.890625 361.359375 152.101562 360.804688 C 149.3125 360.25 146.539062 359.625 143.78125 358.933594 C 141.019531 358.246094 138.28125 357.484375 135.558594 356.660156 C 132.835938 355.835938 130.136719 354.945312 127.460938 353.988281 C 124.78125 353.027344 122.128906 352.007812 119.5 350.917969 C 116.875 349.832031 114.273438 348.679688 111.703125 347.464844 C 109.132812 346.246094 106.59375 344.96875 104.082031 343.628906 C 101.574219 342.289062 99.101562 340.890625 96.660156 339.429688 C 94.222656 337.964844 91.820312 336.445312 89.457031 334.867188 C 87.089844 333.289062 84.765625 331.652344 82.480469 329.957031 C 80.195312 328.265625 77.957031 326.515625 75.757812 324.710938 C 73.558594 322.910156 71.40625 321.054688 69.296875 319.144531 C 67.191406 317.234375 65.132812 315.273438 63.121094 313.265625 C 61.109375 311.253906 59.148438 309.195312 57.238281 307.089844 C 55.328125 304.984375 53.472656 302.832031 51.667969 300.632812 C 49.863281 298.4375 48.113281 296.195312 46.417969 293.914062 C 44.726562 291.628906 43.089844 289.308594 41.507812 286.941406 C 39.925781 284.578125 38.40625 282.179688 36.945312 279.742188 C 35.480469 277.300781 34.082031 274.828125 32.738281 272.324219 C 31.398438 269.816406 30.121094 267.277344 28.90625 264.707031 C 27.6875 262.136719 26.535156 259.539062 25.449219 256.914062 C 24.359375 254.285156 23.335938 251.636719 22.378906 248.957031 C 21.421875 246.28125 20.527344 243.582031 19.703125 240.863281 C 18.878906 238.144531 18.117188 235.402344 17.425781 232.644531 C 16.738281 229.890625 16.113281 227.117188 15.558594 224.328125 C 15.003906 221.539062 14.519531 218.738281 14.101562 215.929688 C 13.683594 213.117188 13.335938 210.296875 13.054688 207.464844 C 12.777344 204.636719 12.566406 201.804688 12.429688 198.964844 C 12.289062 196.125 12.21875 193.285156 12.21875 190.441406 C 12.21875 187.597656 12.289062 184.757812 12.429688 181.917969 C 12.566406 179.078125 12.777344 176.246094 13.054688 173.414062 C 13.335938 170.585938 13.683594 167.765625 14.101562 164.953125 C 14.519531 162.140625 15.003906 159.34375 15.558594 156.554688 C 16.113281 153.765625 16.738281 150.992188 17.425781 148.234375 C 18.117188 145.476562 18.878906 142.738281 19.703125 140.019531 C 20.527344 137.296875 21.421875 134.601562 22.378906 131.921875 C 23.335938 129.246094 24.359375 126.59375 25.449219 123.96875 C 26.535156 121.34375 27.6875 118.746094 28.90625 116.175781 C 30.121094 113.605469 31.398438 111.066406 32.738281 108.558594 C 34.082031 106.050781 35.480469 103.578125 36.945312 101.140625 C 38.40625 98.703125 39.925781 96.300781 41.507812 93.9375 C 43.089844 91.574219 44.726562 89.25 46.417969 86.96875 C 48.113281 84.683594 49.863281 82.445312 51.667969 80.246094 C 53.472656 78.050781 55.328125 75.898438 57.238281 73.792969 C 59.148438 71.683594 61.109375 69.625 63.121094 67.617188 C 65.132812 65.605469 67.191406 63.648438 69.296875 61.738281 C 71.40625 59.828125 73.558594 57.972656 75.757812 56.167969 C 77.957031 54.367188 80.195312 52.617188 82.480469 50.925781 C 84.765625 49.230469 87.089844 47.59375 89.457031 46.015625 C 91.820312 44.4375 94.222656 42.914062 96.660156 41.453125 C 99.101562 39.992188 101.574219 38.589844 104.082031 37.25 C 106.59375 35.910156 109.132812 34.632812 111.703125 33.417969 C 114.273438 32.203125 116.875 31.050781 119.5 29.964844 C 122.128906 28.875 124.78125 27.851562 127.460938 26.894531 C 130.136719 25.9375 132.835938 25.046875 135.558594 24.222656 C 138.28125 23.394531 141.019531 22.636719 143.78125 21.945312 C 146.539062 21.257812 149.3125 20.632812 152.101562 20.078125 C 154.890625 19.523438 157.691406 19.039062 160.507812 18.621094 C 163.320312 18.203125 166.140625 17.855469 168.972656 17.578125 C 171.804688 17.300781 174.636719 17.089844 177.480469 16.949219 C 180.320312 16.8125 183.164062 16.742188 186.007812 16.742188 C 188.851562 16.742188 191.691406 16.8125 194.535156 16.949219 C 197.375 17.089844 200.210938 17.300781 203.039062 17.578125 C 205.871094 17.855469 208.691406 18.203125 211.507812 18.621094 C 214.320312 19.039062 217.121094 19.523438 219.910156 20.078125 C 222.699219 20.632812 225.472656 21.257812 228.234375 21.945312 C 230.992188 22.636719 233.734375 23.394531 236.453125 24.222656 C 239.175781 25.046875 241.875 25.9375 244.554688 26.894531 C 247.230469 27.851562 249.882812 28.875 252.511719 29.964844 C 255.140625 31.050781 257.738281 32.203125 260.308594 33.417969 C 262.882812 34.632812 265.421875 35.910156 267.929688 37.25 C 270.4375 38.589844 272.910156 39.992188 275.351562 41.453125 C 277.789062 42.914062 280.191406 44.4375 282.558594 46.015625 C 284.921875 47.59375 287.246094 49.230469 289.53125 50.925781 C 291.816406 52.617188 294.058594 54.367188 296.257812 56.167969 C 298.453125 57.972656 300.605469 59.828125 302.714844 61.738281 C 304.820312 63.648438 306.882812 65.605469 308.890625 67.617188 C 310.902344 69.625 312.863281 71.683594 314.773438 73.792969 C 316.683594 75.898438 318.542969 78.050781 320.347656 80.246094 C 322.148438 82.445312 323.898438 84.683594 325.59375 86.96875 C 327.289062 89.25 328.925781 91.574219 330.503906 93.9375 C 332.085938 96.300781 333.605469 98.703125 335.070312 101.140625 C 336.53125 103.578125 337.933594 106.050781 339.273438 108.558594 C 340.613281 111.066406 341.890625 113.605469 343.109375 116.175781 C 344.324219 118.746094 345.476562 121.34375 346.566406 123.96875 C 347.652344 126.59375 348.675781 129.246094 349.632812 131.921875 C 350.59375 134.601562 351.484375 137.296875 352.308594 140.019531 C 353.136719 142.738281 353.894531 145.476562 354.585938 148.234375 C 355.277344 150.992188 355.898438 153.765625 356.453125 156.554688 C 357.007812 159.34375 357.496094 162.140625 357.914062 164.953125 C 358.328125 167.765625 358.679688 170.585938 358.957031 173.414062 C 359.234375 176.246094 359.445312 179.078125 359.585938 181.917969 C 359.722656 184.757812 359.792969 187.597656 359.792969 190.441406 Z M 359.792969 190.441406 " fill-opacity="1" fill-rule="nonzero"/><path fill="#fdda7f" d="M 322.863281 193.699219 C 322.863281 194.160156 322.804688 194.621094 322.691406 195.074219 C 322.578125 195.527344 322.40625 195.96875 322.183594 196.398438 C 321.957031 196.828125 321.679688 197.234375 321.355469 197.617188 C 321.027344 198.003906 320.65625 198.359375 320.238281 198.6875 C 319.824219 199.015625 319.371094 199.308594 318.882812 199.566406 C 318.390625 199.824219 317.875 200.039062 317.332031 200.21875 C 316.789062 200.394531 316.226562 200.527344 315.652344 200.617188 C 315.074219 200.710938 314.492188 200.753906 313.902344 200.753906 C 313.316406 200.753906 312.730469 200.710938 312.15625 200.617188 C 311.578125 200.527344 311.015625 200.394531 310.472656 200.21875 C 309.929688 200.039062 309.414062 199.824219 308.925781 199.566406 C 308.433594 199.308594 307.984375 199.015625 307.566406 198.6875 C 307.152344 198.359375 306.777344 198.003906 306.453125 197.617188 C 306.125 197.234375 305.847656 196.828125 305.625 196.398438 C 305.398438 195.96875 305.230469 195.527344 305.113281 195.074219 C 305 194.621094 304.941406 194.160156 304.941406 193.699219 C 304.941406 193.234375 305 192.777344 305.113281 192.320312 C 305.230469 191.867188 305.398438 191.425781 305.625 190.996094 C 305.847656 190.570312 306.125 190.164062 306.453125 189.777344 C 306.777344 189.390625 307.152344 189.035156 307.566406 188.707031 C 307.984375 188.378906 308.433594 188.085938 308.925781 187.832031 C 309.414062 187.574219 309.929688 187.355469 310.472656 187.179688 C 311.015625 187 311.578125 186.867188 312.15625 186.777344 C 312.730469 186.6875 313.316406 186.640625 313.902344 186.640625 C 314.492188 186.640625 315.074219 186.6875 315.652344 186.777344 C 316.226562 186.867188 316.789062 187 317.332031 187.179688 C 317.875 187.355469 318.390625 187.574219 318.882812 187.832031 C 319.371094 188.085938 319.824219 188.378906 320.238281 188.707031 C 320.65625 189.035156 321.027344 189.390625 321.355469 189.777344 C 321.679688 190.164062 321.957031 190.570312 322.183594 190.996094 C 322.40625 191.425781 322.578125 191.867188 322.691406 192.320312 C 322.804688 192.777344 322.863281 193.234375 322.863281 193.699219 Z M 322.863281 193.699219 " fill-opacity="1" fill-rule="nonzero"/><path fill="#464e58" d="M 294.082031 166.828125 L 294.082031 189.625 C 294.082031 192.339844 296.253906 194.511719 298.96875 194.511719 L 328.835938 194.511719 C 331.554688 194.511719 333.726562 192.339844 333.726562 189.625 L 333.726562 166.828125 Z M 294.082031 166.828125 " fill-opacity="1" fill-rule="nonzero"/><path fill="#f2f2f2" d="M 308.742188 67.496094 C 273.714844 71.292969 255.792969 112.820312 278.058594 141.046875 C 283.761719 148.375 287.5625 157.058594 288.648438 166.285156 C 288.921875 168.726562 290.820312 170.355469 293.265625 170.355469 L 334.8125 170.355469 C 337.253906 170.355469 339.15625 168.457031 339.429688 166.285156 C 340.515625 157.328125 343.773438 148.644531 349.476562 141.589844 C 375 110.375 349.746094 63.152344 308.742188 67.496094 Z M 308.742188 67.496094 " fill-opacity="1" fill-rule="nonzero"/><path fill="#464e58" d="M 322.050781 170.355469 C 321.507812 165.472656 319.0625 131.003906 331.824219 117.976562 L 330.46875 116.617188 C 317.160156 130.1875 319.605469 164.386719 320.148438 170.355469 Z M 322.050781 170.355469 " fill-opacity="1" fill-rule="nonzero"/><path fill="#464e58" d="M 305.757812 170.355469 L 307.65625 170.355469 C 308.199219 164.386719 310.644531 130.460938 297.339844 116.617188 L 295.980469 117.976562 C 308.472656 131.273438 306.300781 165.472656 305.757812 170.355469 Z M 305.757812 170.355469 " fill-opacity="1" fill-rule="nonzero"/><path fill="#464e58" d="M 314.445312 115.53125 L 307.929688 109.019531 L 301.953125 114.988281 L 300.324219 113.632812 L 307.929688 106.304688 L 314.445312 112.820312 L 320.421875 106.578125 L 327.480469 113.363281 L 326.121094 114.988281 L 320.421875 109.5625 Z M 314.445312 115.53125 " fill-opacity="1" fill-rule="nonzero"/><path fill="#fdda7f" d="M 67.070312 193.699219 C 67.070312 194.160156 67.011719 194.621094 66.898438 195.074219 C 66.785156 195.527344 66.613281 195.96875 66.390625 196.398438 C 66.164062 196.828125 65.886719 197.234375 65.5625 197.617188 C 65.234375 198.003906 64.863281 198.359375 64.445312 198.6875 C 64.03125 199.015625 63.578125 199.308594 63.089844 199.566406 C 62.597656 199.824219 62.082031 200.039062 61.539062 200.21875 C 60.996094 200.394531 60.433594 200.527344 59.859375 200.617188 C 59.28125 200.710938 58.699219 200.753906 58.109375 200.753906 C 57.523438 200.753906 56.9375 200.710938 56.363281 200.617188 C 55.785156 200.527344 55.222656 200.394531 54.679688 200.21875 C 54.136719 200.039062 53.621094 199.824219 53.132812 199.566406 C 52.640625 199.308594 52.191406 199.015625 51.773438 198.6875 C 51.359375 198.359375 50.984375 198.003906 50.660156 197.617188 C 50.332031 197.234375 50.054688 196.828125 49.832031 196.398438 C 49.605469 195.96875 49.4375 195.527344 49.320312 195.074219 C 49.207031 194.621094 49.148438 194.160156 49.148438 193.699219 C 49.148438 193.234375 49.207031 192.777344 49.320312 192.320312 C 49.4375 191.867188 49.605469 191.425781 49.832031 190.996094 C 50.054688 190.570312 50.332031 190.164062 50.660156 189.777344 C 50.984375 189.390625 51.359375 189.035156 51.773438 188.707031 C 52.191406 188.378906 52.640625 188.085938 53.132812 187.832031 C 53.621094 187.574219 54.136719 187.355469 54.679688 187.179688 C 55.222656 187 55.785156 186.867188 56.363281 186.777344 C 56.9375 186.6875 57.523438 186.640625 58.109375 186.640625 C 58.699219 186.640625 59.28125 186.6875 59.859375 186.777344 C 60.433594 186.867188 60.996094 187 61.539062 187.179688 C 62.082031 187.355469 62.597656 187.574219 63.089844 187.832031 C 63.578125 188.085938 64.03125 188.378906 64.445312 188.707031 C 64.863281 189.035156 65.234375 189.390625 65.5625 189.777344 C 65.886719 190.164062 66.164062 190.570312 66.390625 190.996094 C 66.613281 191.425781 66.785156 191.867188 66.898438 192.320312 C 67.011719 192.777344 67.070312 193.234375 67.070312 193.699219 Z M 67.070312 193.699219 " fill-opacity="1" fill-rule="nonzero"/><path fill="#464e58" d="M 38.289062 166.828125 L 38.289062 189.625 C 38.289062 192.339844 40.460938 194.511719 43.175781 194.511719 L 73.042969 194.511719 C 75.761719 194.511719 77.933594 192.339844 77.933594 189.625 L 77.933594 166.828125 Z M 38.289062 166.828125 " fill-opacity="1" fill-rule="nonzero"/><path fill="#f2f2f2" d="M 52.949219 67.496094 C 17.921875 71.566406 0 112.820312 21.996094 141.046875 C 27.699219 148.375 31.5 157.058594 32.585938 166.285156 C 32.855469 168.726562 34.757812 170.355469 37.203125 170.355469 L 78.746094 170.355469 C 81.191406 170.355469 83.09375 168.457031 83.363281 166.285156 C 84.449219 157.328125 87.707031 148.644531 93.410156 141.589844 C 118.933594 110.375 93.953125 63.152344 52.949219 67.496094 Z M 52.949219 67.496094 " fill-opacity="1" fill-rule="nonzero"/><path fill="#464e58" d="M 66.257812 170.355469 C 65.714844 165.472656 63.269531 131.003906 76.03125 117.976562 L 74.675781 116.890625 C 61.367188 130.460938 63.8125 164.65625 64.355469 170.628906 L 66.257812 170.628906 Z M 66.257812 170.355469 " fill-opacity="1" fill-rule="nonzero"/><path fill="#464e58" d="M 49.964844 170.355469 L 51.863281 170.355469 C 52.40625 164.386719 54.851562 130.460938 41.546875 116.617188 L 40.1875 117.976562 C 52.679688 131.273438 50.234375 165.472656 49.964844 170.355469 Z M 49.964844 170.355469 " fill-opacity="1" fill-rule="nonzero"/><path fill="#464e58" d="M 58.382812 115.53125 L 51.863281 109.019531 L 45.890625 114.988281 L 44.53125 113.632812 L 51.863281 106.304688 L 58.382812 112.820312 L 64.628906 106.578125 L 71.6875 113.363281 L 70.058594 114.988281 L 64.628906 109.5625 Z M 58.382812 115.53125 " fill-opacity="1" fill-rule="nonzero"/><path fill="#25313b" d="M 198.496094 187.183594 C 198.496094 187.84375 198.417969 188.496094 198.257812 189.144531 C 198.097656 189.789062 197.859375 190.417969 197.546875 191.027344 C 197.234375 191.636719 196.847656 192.214844 196.390625 192.761719 C 195.9375 193.3125 195.417969 193.820312 194.839844 194.285156 C 194.257812 194.75 193.628906 195.167969 192.945312 195.535156 C 192.265625 195.898438 191.542969 196.210938 190.785156 196.460938 C 190.027344 196.714844 189.246094 196.90625 188.441406 197.03125 C 187.640625 197.160156 186.828125 197.226562 186.007812 197.226562 C 185.1875 197.226562 184.375 197.160156 183.570312 197.03125 C 182.765625 196.90625 181.984375 196.714844 181.226562 196.460938 C 180.46875 196.210938 179.75 195.898438 179.066406 195.535156 C 178.386719 195.167969 177.753906 194.75 177.175781 194.285156 C 176.59375 193.820312 176.078125 193.3125 175.621094 192.761719 C 175.164062 192.214844 174.78125 191.636719 174.464844 191.027344 C 174.152344 190.417969 173.914062 189.789062 173.753906 189.144531 C 173.59375 188.496094 173.515625 187.84375 173.515625 187.183594 C 173.515625 186.523438 173.59375 185.871094 173.753906 185.226562 C 173.914062 184.578125 174.152344 183.949219 174.464844 183.339844 C 174.78125 182.730469 175.164062 182.152344 175.621094 181.605469 C 176.078125 181.058594 176.59375 180.550781 177.175781 180.082031 C 177.753906 179.617188 178.386719 179.199219 179.066406 178.835938 C 179.75 178.46875 180.46875 178.160156 181.226562 177.90625 C 181.984375 177.652344 182.765625 177.464844 183.570312 177.335938 C 184.375 177.207031 185.1875 177.140625 186.007812 177.140625 C 186.828125 177.140625 187.640625 177.207031 188.441406 177.335938 C 189.246094 177.464844 190.027344 177.652344 190.785156 177.90625 C 191.542969 178.160156 192.265625 178.46875 192.945312 178.835938 C 193.628906 179.199219 194.257812 179.617188 194.839844 180.082031 C 195.417969 180.550781 195.9375 181.058594 196.390625 181.605469 C 196.847656 182.152344 197.234375 182.730469 197.546875 183.339844 C 197.859375 183.949219 198.097656 184.578125 198.257812 185.226562 C 198.417969 185.871094 198.496094 186.523438 198.496094 187.183594 Z M 198.496094 187.183594 " fill-opacity="1" fill-rule="nonzero"/><path fill="#464e58" d="M 158.039062 149.457031 L 158.039062 181.757812 C 158.039062 185.554688 161.023438 188.8125 165.097656 188.8125 L 207.1875 188.8125 C 210.988281 188.8125 214.246094 185.828125 214.246094 181.757812 L 214.246094 149.457031 Z M 158.039062 149.457031 " fill-opacity="1" fill-rule="nonzero"/><path fill="#fdda7f" d="M 178.675781 9.140625 C 129.253906 14.570312 104 73.195312 135.226562 112.820312 C 143.375 123.132812 148.535156 135.34375 150.164062 148.375 C 150.707031 151.628906 153.421875 154.34375 156.679688 154.34375 L 215.0625 154.34375 C 218.320312 154.34375 221.308594 151.902344 221.578125 148.375 C 222.9375 135.617188 227.824219 123.675781 235.699219 113.632812 C 272.085938 69.394531 236.511719 2.898438 178.675781 9.140625 Z M 178.675781 9.140625 " fill-opacity="1" fill-rule="nonzero"/><path fill="#464e58" d="M 197.683594 154.34375 C 196.867188 147.558594 193.609375 98.976562 211.261719 80.523438 L 209.085938 78.621094 C 190.351562 97.890625 193.882812 146.203125 194.425781 154.34375 Z M 197.683594 154.34375 " fill-opacity="1" fill-rule="nonzero"/><path fill="#464e58" d="M 174.332031 154.34375 L 177.316406 154.34375 C 178.132812 146.203125 181.390625 97.890625 162.652344 78.621094 L 160.753906 80.523438 C 178.402344 98.976562 175.144531 147.289062 174.332031 154.34375 Z M 174.332031 154.34375 " fill-opacity="1" fill-rule="nonzero"/><path fill="#464e58" d="M 186.550781 76.992188 L 177.316406 67.765625 L 168.898438 76.179688 L 167 74.28125 L 177.316406 63.695312 L 186.550781 72.921875 L 195.238281 64.238281 L 205.015625 74.007812 L 203.113281 75.90625 L 195.238281 68.308594 Z M 186.550781 76.992188 " fill-opacity="1" fill-rule="nonzero"/><path fill="#fdda7f" d="M 238.144531 260.191406 C 232.441406 259.648438 227.824219 263.992188 227.824219 269.691406 L 227.824219 263.71875 C 227.824219 258.835938 224.292969 254.222656 219.40625 253.949219 C 213.703125 253.40625 209.085938 257.75 209.085938 263.449219 L 209.085938 259.648438 C 209.085938 254.765625 205.558594 250.148438 200.667969 249.878906 C 194.96875 249.335938 190.351562 253.679688 190.351562 259.378906 L 190.351562 216.496094 C 190.351562 211.609375 186.820312 206.996094 181.933594 206.726562 C 176.230469 206.183594 171.613281 210.523438 171.613281 216.222656 L 171.613281 304.160156 L 160.210938 294.933594 C 166.457031 286.246094 165.640625 274.304688 158.308594 266.164062 L 158.039062 265.890625 L 137.671875 290.859375 C 133.597656 295.746094 134.683594 303.074219 139.574219 306.875 L 186.007812 342.699219 L 247.375 342.699219 L 247.375 269.691406 C 246.558594 265.078125 243.03125 260.734375 238.144531 260.191406 Z M 238.144531 260.191406 " fill-opacity="1" fill-rule="nonzero"/><g clip-path="url(#90eebf5053)"><path fill="#f37c5a" d="M 250.632812 339.171875 L 176.503906 339.171875 C 175.6875 339.171875 174.875 339.984375 174.875 340.800781 L 174.875 373.097656 C 174.875 373.910156 175.6875 374.726562 176.503906 374.726562 L 250.632812 374.726562 C 251.449219 374.726562 252.261719 373.910156 252.261719 373.097656 L 252.261719 340.800781 C 252.261719 339.984375 251.449219 339.171875 250.632812 339.171875 Z M 250.632812 339.171875 " fill-opacity="1" fill-rule="nonzero"/></g></svg>