<svg xmlns="http://www.w3.org/2000/svg" xmlns:xlink="http://www.w3.org/1999/xlink" width="500" zoomAndPan="magnify" viewBox="0 0 375 374.999991" height="500" preserveAspectRatio="xMidYMid meet" version="1.0"><defs><clipPath id="2cb5642b26"><path d="M 24.84375 0.367188 L 350.34375 0.367188 L 350.34375 374.65625 L 24.84375 374.65625 Z M 24.84375 0.367188 " clip-rule="nonzero"/></clipPath></defs><g clip-path="url(#2cb5642b26)"><path fill="#00ae37" d="M 273.328125 18.984375 C 241.636719 18.984375 211.308594 12.386719 187.59375 0.371094 C 163.886719 12.382812 133.550781 18.984375 101.859375 18.984375 C 73.941406 18.984375 47.0625 13.859375 24.84375 4.421875 L 24.84375 159.78125 C 24.84375 260.902344 97.730469 356.957031 187.59375 374.65625 C 277.460938 356.957031 350.34375 260.902344 350.34375 159.78125 L 350.34375 4.421875 C 328.125 13.859375 301.25 18.984375 273.328125 18.984375 " fill-opacity="1" fill-rule="nonzero"/></g><path fill="#ffffff" d="M 155.648438 249.734375 L 87.847656 181.976562 L 108.164062 161.671875 L 155.648438 209.128906 L 267.019531 97.820312 L 287.339844 118.125 L 155.648438 249.734375 " fill-opacity="1" fill-rule="nonzero"/><path fill="#008e28" d="M 252.644531 346.675781 C 304.929688 310.765625 342.90625 247.71875 349.367188 180.113281 L 287.339844 118.125 L 155.648438 249.734375 L 252.644531 346.675781 " fill-opacity="1" fill-rule="nonzero"/></svg>