<svg xmlns="http://www.w3.org/2000/svg" xmlns:xlink="http://www.w3.org/1999/xlink" width="500" zoomAndPan="magnify" viewBox="0 0 375 374.999991" height="500" preserveAspectRatio="xMidYMid meet" version="1.0"><defs><clipPath id="f4c814a153"><path d="M 133 143 L 242 143 L 242 344.4375 L 133 344.4375 Z M 133 143 " clip-rule="nonzero"/></clipPath><clipPath id="2948a6c9f7"><path d="M 185 30.9375 L 190 30.9375 L 190 64 L 185 64 Z M 185 30.9375 " clip-rule="nonzero"/></clipPath></defs><path fill="#4d4d4d" d="M 53.222656 122.484375 C 52.886719 114.351562 46.191406 107.863281 37.984375 107.863281 L 16.664062 107.863281 C 8.457031 107.863281 1.761719 114.351562 1.425781 122.484375 L 1.410156 122.484375 L 1.410156 150.242188 C 1.410156 153.992188 4.335938 157.054688 8.023438 157.277344 L 8.023438 197.910156 C 8.023438 201.773438 11.152344 204.902344 15.011719 204.902344 C 18.867188 204.902344 21.992188 201.773438 21.992188 197.910156 L 21.992188 171.59375 C 21.992188 168.648438 24.378906 166.257812 27.324219 166.257812 C 30.269531 166.257812 32.65625 168.648438 32.65625 171.59375 L 32.65625 197.910156 C 32.65625 201.773438 35.78125 204.902344 39.636719 204.902344 C 43.496094 204.902344 46.625 201.773438 46.625 197.910156 L 46.625 157.277344 C 50.3125 157.054688 53.238281 153.992188 53.238281 150.242188 L 53.238281 122.484375 L 53.222656 122.484375 " fill-opacity="1" fill-rule="nonzero"/><path fill="#ffffff" d="M 27.324219 165.15625 C 30.871094 165.15625 33.757812 168.042969 33.757812 171.59375 L 33.757812 197.910156 C 33.757812 201.160156 36.394531 203.800781 39.636719 203.800781 C 42.882812 203.800781 45.523438 201.160156 45.523438 197.910156 L 45.523438 156.234375 L 46.558594 156.171875 C 49.683594 155.988281 52.136719 153.382812 52.136719 150.242188 L 52.121094 122.53125 C 51.808594 114.921875 45.597656 108.964844 37.984375 108.964844 L 16.664062 108.964844 C 9.050781 108.964844 2.839844 114.921875 2.527344 122.53125 L 2.511719 123.125 L 2.511719 150.242188 C 2.511719 153.382812 4.964844 155.988281 8.089844 156.171875 L 9.125 156.234375 L 9.125 197.910156 C 9.125 201.160156 11.765625 203.800781 15.011719 203.800781 C 18.253906 203.800781 20.890625 201.160156 20.890625 197.910156 L 20.890625 171.59375 C 20.890625 168.042969 23.777344 165.15625 27.324219 165.15625 Z M 39.636719 206.007812 C 35.179688 206.007812 31.554688 202.375 31.554688 197.910156 L 31.554688 171.59375 C 31.554688 169.261719 29.660156 167.363281 27.324219 167.363281 C 24.988281 167.363281 23.09375 169.261719 23.09375 171.59375 L 23.09375 197.910156 C 23.09375 202.375 19.46875 206.007812 15.011719 206.007812 C 10.546875 206.007812 6.921875 202.375 6.921875 197.910156 L 6.921875 158.25 C 3.140625 157.527344 0.308594 154.195312 0.308594 150.242188 L 0.308594 121.382812 L 0.402344 121.382812 C 1.273438 113.101562 8.222656 106.757812 16.664062 106.757812 L 37.984375 106.757812 C 46.425781 106.757812 53.375 113.101562 54.246094 121.382812 L 54.339844 121.382812 L 54.339844 150.242188 C 54.339844 154.195312 51.507812 157.527344 47.726562 158.25 L 47.726562 197.910156 C 47.726562 202.375 44.101562 206.007812 39.636719 206.007812 " fill-opacity="1" fill-rule="nonzero"/><path fill="#4d4d4d" d="M 42.25 90.246094 C 42.25 98.5 35.570312 105.191406 27.324219 105.191406 C 19.078125 105.191406 12.398438 98.5 12.398438 90.246094 C 12.398438 81.992188 19.078125 75.296875 27.324219 75.296875 C 35.570312 75.296875 42.25 81.992188 42.25 90.246094 " fill-opacity="1" fill-rule="nonzero"/><path fill="#ffffff" d="M 27.324219 76.398438 C 19.699219 76.398438 13.5 82.609375 13.5 90.246094 C 13.5 97.875 19.699219 104.085938 27.324219 104.085938 C 34.949219 104.085938 41.148438 97.875 41.148438 90.246094 C 41.148438 82.609375 34.949219 76.398438 27.324219 76.398438 Z M 27.324219 106.292969 C 18.484375 106.292969 11.296875 99.09375 11.296875 90.246094 C 11.296875 81.394531 18.484375 74.195312 27.324219 74.195312 C 36.164062 74.195312 43.351562 81.394531 43.351562 90.246094 C 43.351562 99.09375 36.164062 106.292969 27.324219 106.292969 " fill-opacity="1" fill-rule="nonzero"/><path fill="#4d4d4d" d="M 103.035156 146.871094 C 102.617188 136.65625 94.210938 128.5 83.902344 128.5 L 57.113281 128.5 C 46.804688 128.5 38.402344 136.65625 37.980469 146.871094 L 37.960938 146.871094 L 37.960938 181.738281 C 37.960938 186.445312 41.632812 190.292969 46.265625 190.570312 L 46.265625 241.609375 C 46.265625 246.464844 50.191406 250.394531 55.035156 250.394531 C 59.882812 250.394531 63.8125 246.464844 63.8125 241.609375 L 63.8125 208.554688 C 63.8125 204.855469 66.808594 201.851562 70.507812 201.851562 C 74.207031 201.851562 77.203125 204.855469 77.203125 208.554688 L 77.203125 241.609375 C 77.203125 246.464844 81.132812 250.394531 85.980469 250.394531 C 90.824219 250.394531 94.75 246.464844 94.75 241.609375 L 94.75 190.570312 C 99.382812 190.292969 103.054688 186.445312 103.054688 181.738281 L 103.054688 146.871094 L 103.035156 146.871094 " fill-opacity="1" fill-rule="nonzero"/><path fill="#ffffff" d="M 70.507812 200.75 C 74.808594 200.75 78.304688 204.25 78.304688 208.554688 L 78.304688 241.609375 C 78.304688 245.847656 81.746094 249.292969 85.980469 249.292969 C 90.207031 249.292969 93.648438 245.847656 93.648438 241.609375 L 93.648438 189.53125 L 94.683594 189.46875 C 98.761719 189.222656 101.953125 185.828125 101.953125 181.738281 L 101.933594 146.917969 C 101.535156 137.210938 93.613281 129.601562 83.902344 129.601562 L 57.113281 129.601562 C 47.402344 129.601562 39.480469 137.210938 39.082031 146.917969 L 39.0625 147.675781 L 39.0625 181.738281 C 39.0625 185.828125 42.253906 189.222656 46.332031 189.46875 L 47.367188 189.53125 L 47.367188 241.609375 C 47.367188 245.847656 50.808594 249.292969 55.035156 249.292969 C 59.269531 249.292969 62.710938 245.847656 62.710938 241.609375 L 62.710938 208.554688 C 62.710938 204.25 66.207031 200.75 70.507812 200.75 Z M 85.980469 251.5 C 80.53125 251.5 76.101562 247.0625 76.101562 241.609375 L 76.101562 208.554688 C 76.101562 205.46875 73.59375 202.957031 70.507812 202.957031 C 67.421875 202.957031 64.914062 205.46875 64.914062 208.554688 L 64.914062 241.609375 C 64.914062 247.0625 60.484375 251.5 55.035156 251.5 C 49.59375 251.5 45.164062 247.0625 45.164062 241.609375 L 45.164062 191.554688 C 40.429688 190.769531 36.859375 186.640625 36.859375 181.738281 L 36.859375 145.769531 L 36.949219 145.769531 C 37.910156 135.386719 46.570312 127.398438 57.113281 127.398438 L 83.902344 127.398438 C 94.445312 127.398438 103.105469 135.386719 104.066406 145.769531 L 104.15625 145.769531 L 104.15625 181.738281 C 104.15625 186.640625 100.585938 190.769531 95.851562 191.554688 L 95.851562 241.609375 C 95.851562 247.0625 91.421875 251.5 85.980469 251.5 " fill-opacity="1" fill-rule="nonzero"/><path fill="#4d4d4d" d="M 89.257812 106.375 C 89.257812 116.742188 80.863281 125.148438 70.507812 125.148438 C 60.152344 125.148438 51.757812 116.742188 51.757812 106.375 C 51.757812 96.007812 60.152344 87.601562 70.507812 87.601562 C 80.863281 87.601562 89.257812 96.007812 89.257812 106.375 " fill-opacity="1" fill-rule="nonzero"/><path fill="#ffffff" d="M 70.507812 88.703125 C 60.777344 88.703125 52.859375 96.632812 52.859375 106.375 C 52.859375 116.121094 60.777344 124.046875 70.507812 124.046875 C 80.238281 124.046875 88.15625 116.121094 88.15625 106.375 C 88.15625 96.632812 80.238281 88.703125 70.507812 88.703125 Z M 70.507812 126.253906 C 59.558594 126.253906 50.65625 117.335938 50.65625 106.375 C 50.65625 95.414062 59.558594 86.5 70.507812 86.5 C 81.457031 86.5 90.359375 95.414062 90.359375 106.375 C 90.359375 117.335938 81.457031 126.253906 70.507812 126.253906 " fill-opacity="1" fill-rule="nonzero"/><path fill="#4d4d4d" d="M 162.570312 176.730469 C 162.035156 163.800781 151.402344 153.480469 138.355469 153.480469 L 104.453125 153.480469 C 91.402344 153.480469 80.769531 163.800781 80.238281 176.730469 L 80.210938 176.730469 L 80.210938 220.855469 C 80.210938 226.8125 84.859375 231.683594 90.722656 232.035156 L 90.722656 296.632812 C 90.722656 302.773438 95.695312 307.75 101.824219 307.75 C 107.957031 307.75 112.925781 302.773438 112.925781 296.632812 L 112.925781 254.796875 C 112.925781 250.113281 116.722656 246.316406 121.402344 246.316406 C 126.085938 246.316406 129.878906 250.113281 129.878906 254.796875 L 129.878906 296.632812 C 129.878906 302.773438 134.847656 307.75 140.980469 307.75 C 147.113281 307.75 152.082031 302.773438 152.082031 296.632812 L 152.082031 232.035156 C 157.945312 231.683594 162.59375 226.8125 162.59375 220.855469 L 162.59375 176.730469 L 162.570312 176.730469 " fill-opacity="1" fill-rule="nonzero"/><path fill="#ffffff" d="M 121.402344 245.210938 C 126.683594 245.210938 130.980469 249.511719 130.980469 254.796875 L 130.980469 296.632812 C 130.980469 302.15625 135.464844 306.644531 140.980469 306.644531 C 146.496094 306.644531 150.980469 302.15625 150.980469 296.632812 L 150.980469 230.996094 L 152.015625 230.933594 C 157.328125 230.617188 161.492188 226.191406 161.492188 220.855469 L 161.492188 177.125 L 161.472656 176.777344 C 160.957031 164.332031 150.800781 154.585938 138.355469 154.585938 L 104.453125 154.585938 C 92.003906 154.585938 81.847656 164.332031 81.335938 176.777344 L 81.3125 177.75 L 81.3125 220.855469 C 81.3125 226.191406 85.476562 230.617188 90.789062 230.933594 L 91.824219 230.996094 L 91.824219 296.632812 C 91.824219 302.15625 96.308594 306.644531 101.824219 306.644531 C 107.339844 306.644531 111.824219 302.15625 111.824219 296.632812 L 111.824219 254.796875 C 111.824219 249.511719 116.121094 245.210938 121.402344 245.210938 Z M 140.980469 308.851562 C 134.25 308.851562 128.777344 303.371094 128.777344 296.632812 L 128.777344 254.796875 C 128.777344 250.726562 125.46875 247.417969 121.402344 247.417969 C 117.335938 247.417969 114.027344 250.726562 114.027344 254.796875 L 114.027344 296.632812 C 114.027344 303.371094 108.554688 308.851562 101.824219 308.851562 C 95.09375 308.851562 89.621094 303.371094 89.621094 296.632812 L 89.621094 233.03125 C 83.648438 232.164062 79.109375 227.003906 79.109375 220.855469 L 79.109375 175.625 L 79.199219 175.625 C 80.277344 162.503906 91.171875 152.378906 104.453125 152.378906 L 138.355469 152.378906 C 151.636719 152.378906 162.527344 162.503906 163.605469 175.625 L 163.695312 175.625 L 163.695312 220.855469 C 163.695312 227.003906 159.15625 232.164062 153.183594 233.03125 L 153.183594 296.632812 C 153.183594 303.371094 147.710938 308.851562 140.980469 308.851562 " fill-opacity="1" fill-rule="nonzero"/><path fill="#4d4d4d" d="M 145.136719 125.476562 C 145.136719 138.597656 134.507812 149.238281 121.402344 149.238281 C 108.296875 149.238281 97.667969 138.597656 97.667969 125.476562 C 97.667969 112.355469 108.296875 101.71875 121.402344 101.71875 C 134.507812 101.71875 145.136719 112.355469 145.136719 125.476562 " fill-opacity="1" fill-rule="nonzero"/><path fill="#ffffff" d="M 121.402344 102.824219 C 108.921875 102.824219 98.769531 112.988281 98.769531 125.476562 C 98.769531 137.972656 108.921875 148.136719 121.402344 148.136719 C 133.882812 148.136719 144.035156 137.972656 144.035156 125.476562 C 144.035156 112.988281 133.882812 102.824219 121.402344 102.824219 Z M 121.402344 150.34375 C 107.710938 150.34375 96.566406 139.1875 96.566406 125.476562 C 96.566406 111.769531 107.710938 100.617188 121.402344 100.617188 C 135.09375 100.617188 146.238281 111.769531 146.238281 125.476562 C 146.238281 139.1875 135.09375 150.34375 121.402344 150.34375 " fill-opacity="1" fill-rule="nonzero"/><path fill="#4d4d4d" d="M 321.777344 122.484375 C 322.113281 114.351562 328.808594 107.863281 337.011719 107.863281 L 358.339844 107.863281 C 366.542969 107.863281 373.238281 114.351562 373.574219 122.484375 L 373.589844 122.484375 L 373.589844 150.242188 C 373.589844 153.992188 370.664062 157.054688 366.976562 157.277344 L 366.976562 197.910156 C 366.976562 201.773438 363.847656 204.902344 359.992188 204.902344 C 356.132812 204.902344 353.007812 201.773438 353.007812 197.910156 L 353.007812 171.59375 C 353.007812 168.648438 350.621094 166.257812 347.675781 166.257812 C 344.734375 166.257812 342.34375 168.648438 342.34375 171.59375 L 342.34375 197.910156 C 342.34375 201.773438 339.21875 204.902344 335.359375 204.902344 C 331.503906 204.902344 328.375 201.773438 328.375 197.910156 L 328.375 157.277344 C 324.6875 157.054688 321.761719 153.992188 321.761719 150.242188 L 321.761719 122.484375 L 321.777344 122.484375 " fill-opacity="1" fill-rule="nonzero"/><path fill="#ffffff" d="M 347.675781 165.15625 C 351.222656 165.15625 354.109375 168.042969 354.109375 171.59375 L 354.109375 197.910156 C 354.109375 201.160156 356.746094 203.800781 359.992188 203.800781 C 363.234375 203.800781 365.875 201.160156 365.875 197.910156 L 365.875 156.234375 L 366.910156 156.171875 C 370.035156 155.988281 372.488281 153.382812 372.488281 150.242188 L 372.472656 122.53125 C 372.160156 114.921875 365.949219 108.964844 358.339844 108.964844 L 337.011719 108.964844 C 329.402344 108.964844 323.191406 114.921875 322.878906 122.53125 L 322.867188 123.125 L 322.867188 150.242188 C 322.867188 153.382812 325.316406 155.988281 328.441406 156.171875 L 329.476562 156.234375 L 329.476562 197.910156 C 329.476562 201.160156 332.117188 203.800781 335.359375 203.800781 C 338.605469 203.800781 341.242188 201.160156 341.242188 197.910156 L 341.242188 171.59375 C 341.242188 168.042969 344.128906 165.15625 347.675781 165.15625 Z M 359.992188 206.007812 C 355.53125 206.007812 351.90625 202.375 351.90625 197.910156 L 351.90625 171.59375 C 351.90625 169.261719 350.007812 167.363281 347.675781 167.363281 C 345.34375 167.363281 343.445312 169.261719 343.445312 171.59375 L 343.445312 197.910156 C 343.445312 202.375 339.820312 206.007812 335.359375 206.007812 C 330.902344 206.007812 327.273438 202.375 327.273438 197.910156 L 327.273438 158.25 C 323.496094 157.527344 320.660156 154.195312 320.660156 150.242188 L 320.660156 121.382812 L 320.753906 121.382812 C 321.621094 113.101562 328.570312 106.757812 337.011719 106.757812 L 358.339844 106.757812 C 366.78125 106.757812 373.730469 113.101562 374.597656 121.382812 L 374.675781 121.382812 L 374.691406 123.125 L 374.691406 150.242188 C 374.691406 154.195312 371.855469 157.527344 368.078125 158.25 L 368.078125 197.910156 C 368.078125 202.375 364.449219 206.007812 359.992188 206.007812 " fill-opacity="1" fill-rule="nonzero"/><path fill="#4d4d4d" d="M 332.75 90.246094 C 332.75 98.5 339.429688 105.191406 347.675781 105.191406 C 355.921875 105.191406 362.601562 98.5 362.601562 90.246094 C 362.601562 81.992188 355.921875 75.296875 347.675781 75.296875 C 339.429688 75.296875 332.75 81.992188 332.75 90.246094 " fill-opacity="1" fill-rule="nonzero"/><path fill="#ffffff" d="M 347.675781 76.398438 C 340.050781 76.398438 333.851562 82.609375 333.851562 90.246094 C 333.851562 97.875 340.050781 104.085938 347.675781 104.085938 C 355.300781 104.085938 361.5 97.875 361.5 90.246094 C 361.5 82.609375 355.300781 76.398438 347.675781 76.398438 Z M 347.675781 106.292969 C 338.839844 106.292969 331.648438 99.09375 331.648438 90.246094 C 331.648438 81.394531 338.839844 74.195312 347.675781 74.195312 C 356.511719 74.195312 363.703125 81.394531 363.703125 90.246094 C 363.703125 99.09375 356.511719 106.292969 347.675781 106.292969 " fill-opacity="1" fill-rule="nonzero"/><path fill="#4d4d4d" d="M 271.964844 146.871094 C 272.382812 136.65625 280.789062 128.5 291.101562 128.5 L 317.882812 128.5 C 328.195312 128.5 336.601562 136.65625 337.019531 146.871094 L 337.039062 146.871094 L 337.039062 181.738281 C 337.039062 186.445312 333.367188 190.292969 328.734375 190.570312 L 328.734375 241.609375 C 328.734375 246.464844 324.808594 250.394531 319.964844 250.394531 C 315.117188 250.394531 311.1875 246.464844 311.1875 241.609375 L 311.1875 208.554688 C 311.1875 204.855469 308.191406 201.851562 304.492188 201.851562 C 300.796875 201.851562 297.796875 204.855469 297.796875 208.554688 L 297.796875 241.609375 C 297.796875 246.464844 293.867188 250.394531 289.019531 250.394531 C 284.175781 250.394531 280.25 246.464844 280.25 241.609375 L 280.25 190.570312 C 275.617188 190.292969 271.945312 186.445312 271.945312 181.738281 L 271.945312 146.871094 L 271.964844 146.871094 " fill-opacity="1" fill-rule="nonzero"/><path fill="#ffffff" d="M 304.492188 200.75 C 308.792969 200.75 312.289062 204.25 312.289062 208.554688 L 312.289062 241.609375 C 312.289062 245.847656 315.730469 249.292969 319.964844 249.292969 C 324.191406 249.292969 327.632812 245.847656 327.632812 241.609375 L 327.632812 189.53125 L 328.667969 189.46875 C 332.746094 189.222656 335.9375 185.828125 335.9375 181.738281 L 335.917969 146.914062 C 335.519531 137.210938 327.597656 129.601562 317.882812 129.601562 L 291.101562 129.601562 C 281.386719 129.601562 273.464844 137.210938 273.066406 146.914062 L 273.046875 147.675781 L 273.046875 181.738281 C 273.046875 185.828125 276.238281 189.222656 280.316406 189.46875 L 281.351562 189.53125 L 281.351562 241.609375 C 281.351562 245.847656 284.792969 249.292969 289.019531 249.292969 C 293.253906 249.292969 296.695312 245.847656 296.695312 241.609375 L 296.695312 208.554688 C 296.695312 204.25 300.191406 200.75 304.492188 200.75 Z M 319.964844 251.5 C 314.515625 251.5 310.085938 247.0625 310.085938 241.609375 L 310.085938 208.554688 C 310.085938 205.46875 307.578125 202.957031 304.492188 202.957031 C 301.40625 202.957031 298.898438 205.46875 298.898438 208.554688 L 298.898438 241.609375 C 298.898438 247.0625 294.46875 251.5 289.019531 251.5 C 283.578125 251.5 279.148438 247.0625 279.148438 241.609375 L 279.148438 191.554688 C 274.414062 190.769531 270.84375 186.640625 270.84375 181.738281 L 270.84375 145.769531 L 270.933594 145.769531 C 271.894531 135.386719 280.554688 127.398438 291.101562 127.398438 L 317.882812 127.398438 C 328.429688 127.398438 337.089844 135.386719 338.050781 145.769531 L 338.121094 145.769531 L 338.140625 147.675781 L 338.140625 181.738281 C 338.140625 186.640625 334.570312 190.769531 329.835938 191.554688 L 329.835938 241.609375 C 329.835938 247.0625 325.40625 251.5 319.964844 251.5 " fill-opacity="1" fill-rule="nonzero"/><path fill="#4d4d4d" d="M 285.742188 106.375 C 285.742188 116.742188 294.136719 125.148438 304.492188 125.148438 C 314.847656 125.148438 323.242188 116.742188 323.242188 106.375 C 323.242188 96.007812 314.847656 87.601562 304.492188 87.601562 C 294.136719 87.601562 285.742188 96.007812 285.742188 106.375 " fill-opacity="1" fill-rule="nonzero"/><path fill="#ffffff" d="M 304.492188 88.703125 C 294.761719 88.703125 286.84375 96.632812 286.84375 106.375 C 286.84375 116.121094 294.761719 124.046875 304.492188 124.046875 C 314.222656 124.046875 322.140625 116.121094 322.140625 106.375 C 322.140625 96.632812 314.222656 88.703125 304.492188 88.703125 Z M 304.492188 126.253906 C 293.542969 126.253906 284.640625 117.335938 284.640625 106.375 C 284.640625 95.414062 293.542969 86.5 304.492188 86.5 C 315.441406 86.5 324.34375 95.414062 324.34375 106.375 C 324.34375 117.335938 315.441406 126.253906 304.492188 126.253906 " fill-opacity="1" fill-rule="nonzero"/><path fill="#4d4d4d" d="M 212.425781 176.730469 C 212.964844 163.800781 223.601562 153.480469 236.644531 153.480469 L 270.546875 153.480469 C 283.59375 153.480469 294.230469 163.800781 294.765625 176.730469 L 294.789062 176.730469 L 294.789062 220.855469 C 294.789062 226.8125 290.140625 231.683594 284.277344 232.035156 L 284.277344 296.632812 C 284.277344 302.773438 279.304688 307.75 273.175781 307.75 C 267.042969 307.75 262.074219 302.773438 262.074219 296.632812 L 262.074219 254.796875 C 262.074219 250.113281 258.277344 246.316406 253.597656 246.316406 C 248.914062 246.316406 245.121094 250.113281 245.121094 254.796875 L 245.121094 296.632812 C 245.121094 302.773438 240.152344 307.75 234.019531 307.75 C 227.886719 307.75 222.917969 302.773438 222.917969 296.632812 L 222.917969 232.035156 C 217.054688 231.683594 212.40625 226.8125 212.40625 220.855469 L 212.40625 176.730469 L 212.425781 176.730469 " fill-opacity="1" fill-rule="nonzero"/><path fill="#ffffff" d="M 253.597656 245.210938 C 258.878906 245.210938 263.175781 249.511719 263.175781 254.796875 L 263.175781 296.632812 C 263.175781 302.15625 267.660156 306.644531 273.175781 306.644531 C 278.691406 306.644531 283.175781 302.15625 283.175781 296.632812 L 283.175781 230.996094 L 284.210938 230.933594 C 289.523438 230.617188 293.6875 226.191406 293.6875 220.855469 L 293.6875 177.121094 L 293.664062 176.777344 C 293.152344 164.332031 282.996094 154.585938 270.546875 154.585938 L 236.644531 154.585938 C 224.199219 154.585938 214.042969 164.332031 213.527344 176.777344 L 213.507812 177.75 L 213.507812 220.855469 C 213.507812 226.191406 217.671875 230.617188 222.984375 230.933594 L 224.019531 230.996094 L 224.019531 296.632812 C 224.019531 302.15625 228.503906 306.644531 234.019531 306.644531 C 239.535156 306.644531 244.019531 302.15625 244.019531 296.632812 L 244.019531 254.796875 C 244.019531 249.511719 248.316406 245.210938 253.597656 245.210938 Z M 273.175781 308.851562 C 266.445312 308.851562 260.972656 303.371094 260.972656 296.632812 L 260.972656 254.796875 C 260.972656 250.726562 257.664062 247.417969 253.597656 247.417969 C 249.53125 247.417969 246.222656 250.726562 246.222656 254.796875 L 246.222656 296.632812 C 246.222656 303.371094 240.75 308.851562 234.019531 308.851562 C 227.289062 308.851562 221.816406 303.371094 221.816406 296.632812 L 221.816406 233.03125 C 215.84375 232.164062 211.304688 227.003906 211.304688 220.855469 L 211.304688 175.625 L 211.394531 175.625 C 212.472656 162.503906 223.363281 152.378906 236.644531 152.378906 L 270.546875 152.378906 C 283.828125 152.378906 294.722656 162.503906 295.800781 175.625 L 295.867188 175.625 L 295.890625 177.75 L 295.890625 220.855469 C 295.890625 227.003906 291.351562 232.164062 285.378906 233.03125 L 285.378906 296.632812 C 285.378906 303.371094 279.90625 308.851562 273.175781 308.851562 " fill-opacity="1" fill-rule="nonzero"/><path fill="#4d4d4d" d="M 229.863281 125.476562 C 229.863281 138.597656 240.492188 149.238281 253.597656 149.238281 C 266.703125 149.238281 277.332031 138.597656 277.332031 125.476562 C 277.332031 112.355469 266.703125 101.71875 253.597656 101.71875 C 240.492188 101.71875 229.863281 112.355469 229.863281 125.476562 " fill-opacity="1" fill-rule="nonzero"/><path fill="#ffffff" d="M 253.597656 102.824219 C 241.117188 102.824219 230.964844 112.988281 230.964844 125.476562 C 230.964844 137.972656 241.117188 148.136719 253.597656 148.136719 C 266.078125 148.136719 276.230469 137.972656 276.230469 125.476562 C 276.230469 112.988281 266.078125 102.824219 253.597656 102.824219 Z M 253.597656 150.34375 C 239.90625 150.34375 228.761719 139.1875 228.761719 125.476562 C 228.761719 111.769531 239.90625 100.617188 253.597656 100.617188 C 267.289062 100.617188 278.433594 111.769531 278.433594 125.476562 C 278.433594 139.1875 267.289062 150.34375 253.597656 150.34375 " fill-opacity="1" fill-rule="nonzero"/><g clip-path="url(#f4c814a153)"><path fill="#519cb0" d="M 241.011719 174.207031 C 240.316406 157.402344 226.492188 143.984375 209.53125 143.984375 L 165.46875 143.984375 C 148.507812 143.984375 134.683594 157.402344 133.992188 174.207031 L 133.960938 174.207031 L 133.960938 231.558594 C 133.960938 239.304688 140.003906 245.632812 147.621094 246.089844 L 147.621094 330.050781 C 147.621094 338.03125 154.082031 344.5 162.050781 344.5 C 170.023438 344.5 176.484375 338.03125 176.484375 330.050781 L 176.484375 275.675781 C 176.484375 269.585938 181.417969 264.648438 187.5 264.648438 C 193.582031 264.648438 198.515625 269.585938 198.515625 275.675781 L 198.515625 330.050781 C 198.515625 338.03125 204.976562 344.5 212.949219 344.5 C 220.917969 344.5 227.378906 338.03125 227.378906 330.050781 L 227.378906 246.089844 C 234.996094 245.632812 241.039062 239.304688 241.039062 231.558594 L 241.039062 174.207031 L 241.011719 174.207031 " fill-opacity="1" fill-rule="nonzero"/></g><path fill="#519cb0" d="M 218.34375 107.589844 C 218.34375 124.648438 204.535156 138.472656 187.5 138.472656 C 170.464844 138.472656 156.65625 124.648438 156.65625 107.589844 C 156.65625 90.535156 170.464844 76.707031 187.5 76.707031 C 204.535156 76.707031 218.34375 90.535156 218.34375 107.589844 " fill-opacity="1" fill-rule="nonzero"/><g clip-path="url(#2948a6c9f7)"><path fill="#519cb0" d="M 188.703125 63.636719 L 186.296875 63.636719 C 185.628906 63.636719 185.089844 63.097656 185.089844 62.429688 L 185.089844 32.167969 C 185.089844 31.503906 185.628906 30.960938 186.296875 30.960938 L 188.703125 30.960938 C 189.371094 30.960938 189.910156 31.503906 189.910156 32.167969 L 189.910156 62.429688 C 189.910156 63.097656 189.371094 63.636719 188.703125 63.636719 " fill-opacity="1" fill-rule="nonzero"/></g><path fill="#519cb0" d="M 157.050781 75.921875 L 155.867188 77.101562 C 155.253906 77.71875 154.253906 77.71875 153.640625 77.101562 L 132.789062 56.226562 C 132.175781 55.613281 132.175781 54.613281 132.789062 53.996094 L 133.972656 52.8125 C 134.585938 52.199219 135.585938 52.199219 136.199219 52.8125 L 157.050781 73.691406 C 157.664062 74.304688 157.664062 75.304688 157.050781 75.921875 " fill-opacity="1" fill-rule="nonzero"/><path fill="#519cb0" d="M 217.949219 75.921875 L 219.132812 77.101562 C 219.746094 77.71875 220.746094 77.71875 221.359375 77.101562 L 242.210938 56.226562 C 242.824219 55.613281 242.824219 54.613281 242.210938 53.996094 L 241.027344 52.8125 C 240.414062 52.199219 239.414062 52.199219 238.800781 52.8125 L 217.949219 73.691406 C 217.335938 74.304688 217.335938 75.304688 217.949219 75.921875 " fill-opacity="1" fill-rule="nonzero"/></svg>