<svg xmlns="http://www.w3.org/2000/svg" xmlns:xlink="http://www.w3.org/1999/xlink" width="500" zoomAndPan="magnify" viewBox="0 0 375 374.999991" height="500" preserveAspectRatio="xMidYMid meet" version="1.0"><path fill="#ffb800" d="M 166.542969 84.648438 C 163.914062 84.648438 161.941406 82.238281 162.160156 79.605469 L 165.667969 54.824219 L 148.359375 36.84375 C 145.949219 34.210938 147.261719 30.042969 150.769531 29.386719 L 175.308594 25 L 187.140625 3.070312 C 188.675781 0 193.054688 0 194.808594 3.070312 L 206.640625 25 L 231.179688 29.386719 C 234.6875 30.042969 236.003906 34.210938 233.59375 36.84375 L 216.28125 54.824219 L 219.570312 79.605469 C 220.226562 83.113281 216.5 85.746094 213.433594 84.210938 L 190.863281 73.246094 Z M 166.542969 84.648438 " fill-opacity="1" fill-rule="evenodd"/><path fill="#ffb800" d="M 64.4375 152.851562 C 60.273438 152.851562 37.269531 138.378906 31.789062 135.308594 C 22.808594 130.042969 30.695312 116.007812 39.898438 121.273438 L 68.382812 137.71875 C 75.613281 141.886719 72.546875 152.851562 64.4375 152.851562 Z M 263.828125 99.78125 C 257.695312 99.78125 253.75 93.203125 256.816406 87.71875 L 273.46875 59.210938 C 278.730469 50 292.53125 57.894531 287.273438 67.105469 L 270.839844 95.832031 C 269.308594 98.246094 266.675781 99.78125 263.828125 99.78125 Z M 310.0625 156.140625 C 301.953125 156.140625 299.105469 145.394531 306.117188 141.226562 L 334.820312 124.78125 C 343.804688 119.296875 351.910156 133.332031 342.710938 138.597656 C 337.449219 141.667969 314.445312 156.140625 310.0625 156.140625 Z M 118.121094 99.78125 C 115.273438 99.78125 112.640625 98.246094 111.109375 95.832031 L 94.675781 67.105469 C 89.199219 58.113281 103.222656 50 108.480469 59.210938 L 124.914062 87.71875 C 127.980469 93.203125 124.253906 99.78125 118.121094 99.78125 Z M 118.121094 99.78125 " fill-opacity="1" fill-rule="evenodd"/><path fill="#ffc3a1" d="M 239.070312 340.570312 C 237.316406 340.570312 235.5625 339.472656 234.90625 337.71875 L 144.851562 337.71875 C 143.097656 342.105469 136.527344 341.007812 136.527344 336.183594 L 136.527344 312.9375 C 109.355469 282.894531 104.316406 256.140625 102.5625 247.367188 C 98.179688 224.78125 100.371094 201.535156 101.03125 178.949219 C 101.25 173.683594 108.042969 173.464844 109.574219 177.414062 L 181.882812 157.238281 C 181.882812 149.121094 187.359375 141.886719 199.628906 141.226562 L 239.289062 140.132812 C 244.765625 139.914062 249.585938 139.691406 256.378906 143.640625 C 285.960938 160.746094 289.902344 205.921875 267.773438 274.34375 C 267.773438 274.78125 262.953125 292.324219 243.453125 314.691406 L 243.453125 336.183594 C 243.453125 338.597656 241.480469 340.570312 239.070312 340.570312 Z M 239.070312 340.570312 " fill-opacity="1" fill-rule="evenodd"/><path fill="#fba389" d="M 100.589844 191.226562 C 100.808594 187.0625 100.808594 182.894531 101.03125 178.949219 C 101.25 173.683594 108.042969 173.464844 109.574219 177.414062 L 181.882812 157.238281 C 181.882812 149.121094 187.359375 141.886719 199.628906 141.226562 L 239.289062 140.132812 C 243.890625 139.914062 247.835938 139.691406 252.875 141.886719 C 252.875 145.832031 252.875 149.78125 248.273438 151.753906 L 236.441406 205.042969 C 237.097656 206.359375 237.535156 207.675781 237.535156 209.210938 C 237.535156 219.296875 220.007812 219.957031 209.488281 211.183594 C 198.316406 223.902344 178.15625 222.367188 169.171875 208.113281 C 158 214.691406 143.539062 211.402344 136.304688 200.65625 C 124.035156 208.332031 107.601562 204.167969 100.589844 191.226562 Z M 100.589844 191.226562 " fill-opacity="1" fill-rule="evenodd"/><path fill="#ffc3a1" d="M 226.140625 213.597656 C 213.652344 213.597656 203.136719 203.289062 203.136719 190.570312 C 203.136719 164.914062 203.355469 140.789062 203.355469 113.816406 C 203.355469 101.097656 213.652344 90.789062 226.359375 90.789062 C 238.851562 90.789062 249.367188 101.097656 249.367188 113.816406 L 249.367188 144.515625 C 249.367188 147.148438 247.175781 148.683594 245.203125 148.902344 L 232.496094 205.921875 C 235.125 208.332031 234.90625 213.597656 226.140625 213.597656 Z M 226.140625 213.597656 " fill-opacity="1" fill-rule="evenodd"/><path fill="#2882b0" d="M 250.246094 375 L 129.515625 375 C 124.914062 375 121.1875 371.273438 121.1875 366.667969 L 121.1875 340.132812 C 121.1875 335.527344 124.914062 331.796875 129.515625 331.796875 L 250.246094 331.796875 C 254.84375 331.796875 258.570312 335.527344 258.570312 340.132812 L 258.570312 366.667969 C 258.570312 371.273438 254.84375 375 250.246094 375 Z M 250.246094 375 " fill-opacity="1" fill-rule="evenodd"/><path fill="#fba389" d="M 211.679688 208.332031 C 206.421875 204.167969 203.136719 197.808594 203.136719 190.570312 C 203.136719 164.914062 203.355469 140.789062 203.355469 113.816406 C 203.355469 110.085938 204.230469 106.578125 205.765625 103.289062 C 211.679688 107.894531 215.625 115.132812 215.625 123.464844 C 215.625 147.148438 215.625 170.832031 215.625 194.738281 C 215.625 199.78125 214.089844 204.386719 211.679688 208.332031 Z M 211.679688 208.332031 " fill-opacity="1" fill-rule="evenodd"/><path fill="#ffc3a1" d="M 190.425781 216.226562 C 178.59375 216.226562 168.953125 206.578125 168.953125 194.738281 L 168.953125 123.464844 C 168.953125 111.402344 178.59375 101.753906 190.425781 101.753906 C 202.257812 101.753906 212.117188 111.402344 212.117188 123.464844 C 212.117188 147.808594 212.117188 170.394531 212.117188 194.738281 C 212.117188 206.578125 202.257812 216.226562 190.425781 216.226562 Z M 190.425781 216.226562 " fill-opacity="1" fill-rule="evenodd"/><path fill="#fba389" d="M 232.277344 201.535156 C 221.101562 197.808594 213.652344 195.832031 203.136719 189.914062 L 203.136719 185.746094 C 214.308594 192.324219 223.949219 195.175781 234.25 197.585938 C 233.59375 201.097656 234.03125 200.21875 232.277344 201.535156 Z M 203.355469 141.226562 L 203.355469 137.5 C 211.242188 137.28125 243.011719 135.746094 249.367188 137.0625 L 249.367188 140.789062 C 243.234375 139.253906 213.871094 140.789062 203.355469 141.226562 Z M 203.355469 141.226562 " fill-opacity="1" fill-rule="evenodd"/><path fill="#fba389" d="M 212.117188 137.28125 L 212.117188 141.007812 L 199.628906 141.226562 C 176.621094 142.105469 171.144531 171.710938 212.117188 190.351562 L 212.117188 194.296875 C 165.011719 173.683594 172.460938 138.597656 199.628906 137.71875 Z M 212.117188 137.28125 " fill-opacity="1" fill-rule="evenodd"/><path fill="#ffc3a1" d="M 282.015625 197.585938 C 281.359375 171.492188 272.8125 153.289062 256.378906 143.640625 C 250.246094 140.132812 246.082031 139.914062 239.289062 140.132812 L 199.628906 141.226562 C 175.964844 142.105469 170.925781 173.246094 215.625 191.886719 C 242.792969 203.070312 241.699219 191.226562 218.691406 212.5 Z M 282.015625 197.585938 " fill-opacity="1" fill-rule="evenodd"/><path fill="#fba389" d="M 172.242188 205.921875 C 170.050781 202.632812 168.953125 198.902344 168.953125 194.738281 L 168.953125 123.464844 C 168.953125 119.738281 169.832031 116.226562 171.363281 113.15625 C 177.5 117.761719 181.445312 125 181.445312 132.894531 L 181.445312 186.84375 C 181.445312 194.515625 177.71875 201.535156 172.242188 205.921875 Z M 172.242188 205.921875 " fill-opacity="1" fill-rule="evenodd"/><path fill="#ffc3a1" d="M 156.683594 207.894531 C 145.289062 207.894531 135.867188 198.464844 135.867188 186.84375 L 135.867188 132.894531 C 135.867188 121.492188 145.289062 112.0625 156.683594 112.0625 C 168.296875 112.0625 177.71875 121.492188 177.71875 132.894531 L 177.71875 186.84375 C 177.71875 198.464844 168.296875 207.894531 156.683594 207.894531 Z M 156.683594 207.894531 " fill-opacity="1" fill-rule="evenodd"/><path fill="#fba389" d="M 139.375 198.464844 C 137.183594 195.175781 135.867188 191.226562 135.867188 186.84375 L 135.867188 132.894531 C 135.867188 131.140625 136.085938 129.167969 136.527344 127.414062 C 143.539062 132.015625 148.359375 139.914062 148.359375 148.902344 L 148.359375 178.949219 C 148.359375 186.84375 144.851562 193.640625 139.375 198.464844 Z M 139.375 198.464844 " fill-opacity="1" fill-rule="evenodd"/><path fill="#ffc3a1" d="M 122.722656 200.878906 C 110.890625 200.878906 101.03125 191.007812 101.03125 178.949219 L 101.03125 148.902344 C 101.03125 136.84375 110.890625 126.972656 122.722656 126.972656 C 134.773438 126.972656 144.632812 136.84375 144.632812 148.902344 L 144.632812 178.949219 C 144.632812 191.007812 134.773438 200.878906 122.722656 200.878906 Z M 122.722656 200.878906 " fill-opacity="1" fill-rule="evenodd"/><path fill="#fba389" d="M 234.03125 208.773438 L 237.535156 207.894531 L 236.003906 198.464844 C 236.003906 199.121094 233.371094 200.878906 232.058594 201.535156 Z M 234.03125 208.773438 " fill-opacity="1" fill-rule="evenodd"/><path fill="#20698f" d="M 237.972656 357.675781 C 228.769531 357.675781 219.347656 359.648438 219.347656 353.289062 C 219.347656 347.148438 228.769531 348.902344 237.972656 348.902344 C 243.671875 348.902344 243.671875 357.675781 237.972656 357.675781 Z M 237.972656 357.675781 " fill-opacity="1" fill-rule="evenodd"/></svg>